<svg width="119" height="119" viewBox="0 0 119 119" fill="none" xmlns="http://www.w3.org/2000/svg">
<g clip-path="url(#clip0_98_591)">
<path d="M78.3611 85.4488H74.1307V62.1733C72.9011 61.7392 71.8365 60.9344 71.0834 59.8699C70.3304 58.8054 69.926 57.5335 69.926 56.2296C69.926 54.9256 70.3304 53.6538 71.0834 52.5893C71.8365 51.5248 72.9011 50.72 74.1307 50.2859V43.8558C74.2582 41.8502 73.9732 39.8398 73.2934 37.9486C72.6136 36.0575 71.5533 34.3257 70.1781 32.8603C68.8029 31.3949 67.1419 30.227 65.2977 29.4286C63.4535 28.6302 61.4652 28.2182 59.4555 28.2182C57.4459 28.2182 55.4576 28.6302 53.6134 29.4286C51.7692 30.227 50.1082 31.3949 48.733 32.8603C47.3578 34.3257 46.2975 36.0575 45.6177 37.9486C44.9379 39.8398 44.6529 41.8502 44.7804 43.8558V50.3282C45.9955 50.7709 47.0451 51.5766 47.7867 52.6361C48.5283 53.6955 48.9261 54.9575 48.9261 56.2507C48.9261 57.544 48.5283 58.806 47.7867 59.8654C47.0451 60.9249 45.9955 61.7306 44.7804 62.1733V85.4488H40.55V58.3744H42.6483C43.2093 58.3744 43.7473 58.1515 44.1439 57.7549C44.5406 57.3582 44.7635 56.8202 44.7635 56.2592C44.7635 55.6982 44.5406 55.1602 44.1439 54.7635C43.7473 54.3669 43.2093 54.144 42.6483 54.144H40.55V43.8558C40.4968 41.3394 40.9464 38.8377 41.8726 36.4974C42.7988 34.1571 44.1828 32.0252 45.9436 30.2267C47.7045 28.4283 49.8066 26.9994 52.1268 26.024C54.447 25.0485 56.9386 24.546 59.4555 24.546C61.9725 24.546 64.4641 25.0485 66.7843 26.024C69.1045 26.9994 71.2066 28.4283 72.9674 30.2267C74.7283 32.0252 76.1123 34.1571 77.0385 36.4974C77.9647 38.8377 78.4143 41.3394 78.3611 43.8558V54.144H76.2628C75.7018 54.144 75.1638 54.3669 74.7672 54.7635C74.3705 55.1602 74.1476 55.6982 74.1476 56.2592C74.1476 56.8202 74.3705 57.3582 74.7672 57.7549C75.1638 58.1515 75.7018 58.3744 76.2628 58.3744H78.3611V85.4488Z" fill="#254FD8"/>
<path d="M53.1565 91.4391H48.9261V64.7116L49.6284 64.0855C50.7349 63.1016 51.6211 61.895 52.2291 60.5449C52.8371 59.1948 53.1531 57.7315 53.1565 56.2509H57.3869C57.3766 60.1016 55.8579 63.7949 53.1565 66.5391V91.4391Z" fill="#254FD8"/>
<path d="M69.9596 91.4391H65.7292V66.5391C63.0316 63.7924 61.5136 60.1007 61.4988 56.2509H65.7292C65.729 57.7277 66.0401 59.1879 66.6422 60.5364C67.2443 61.8849 68.1238 63.0913 69.2235 64.077L69.9257 64.7031L69.9596 91.4391Z" fill="#254FD8"/>
<path d="M61.558 65.6422H57.3531V94.2395H61.558V65.6422Z" fill="#254FD8"/>
</g>
<path d="M118.441 62.6611C118.514 61.4554 118.55 60.2497 118.55 59.044C118.55 57.8383 118.514 56.6325 118.441 55.4268L111.9 53.1239C111.567 50.1909 110.988 47.291 110.17 44.4548L115.331 39.8248C114.553 37.5477 113.635 35.3209 112.582 33.1572L105.655 33.531C104.224 30.9476 102.579 28.4893 100.736 26.1822L103.75 19.9305C102.151 18.126 100.444 16.4207 98.6376 14.8243L92.3859 17.8386C90.0783 15.9961 87.62 14.3505 85.0371 12.9193L85.3928 5.9683C83.231 4.91216 81.0062 3.99005 78.7312 3.20721L74.0952 8.36768C71.2578 7.54463 68.3557 6.9638 65.4201 6.63145L63.1111 0.114543C61.9416 0.0422001 60.7358 0 59.5301 0C58.3244 0 57.1187 0.0422001 55.913 0.114543L53.5859 6.63145C50.6488 6.95732 47.7446 7.5321 44.9048 8.34959L40.2748 3.20721C37.9974 3.98896 35.7706 4.91109 33.6072 5.9683L33.981 12.8951C31.3989 14.3278 28.9408 15.9733 26.6321 17.8145L20.3805 14.8002C18.5775 16.3982 16.8723 18.1034 15.2743 19.9064L18.2886 26.158C16.4474 28.4667 14.8019 30.9248 13.3692 33.5069L6.41828 33.1572C5.36107 35.3206 4.43894 37.5474 3.65719 39.8248L8.81766 44.4548C7.99405 47.2941 7.41322 50.1983 7.08143 53.136L0.564525 55.463C0.492182 56.6687 0.449982 57.8744 0.449982 59.0802C0.449982 60.2859 0.492182 61.4916 0.564525 62.6973L7.08143 64.9701C7.40787 67.9052 7.98264 70.8073 8.79957 73.6452L3.6391 78.2812C4.42784 80.5567 5.35599 82.7814 6.41828 84.9428L13.3451 84.569C14.7764 87.152 16.4219 89.6102 18.2645 91.9179L15.2502 98.1695C16.8466 99.9759 18.5518 101.683 20.3564 103.282L26.608 100.267C28.9152 102.111 31.3735 103.756 33.9569 105.187L33.6072 112.132C35.7705 113.191 37.9973 114.115 40.2748 114.899L44.9048 109.72C47.7455 110.533 50.6494 111.106 53.5859 111.432L55.913 117.992C57.1187 118.064 58.3244 118.1 59.5301 118.1C60.7358 118.1 61.9416 118.064 63.1473 117.992L65.4562 111.45C68.379 111.115 71.2687 110.536 74.0952 109.72L78.7312 114.881C81.0059 114.102 83.2307 113.184 85.3928 112.132L85.019 105.205C87.6033 103.776 90.0617 102.13 92.3678 100.286L98.6195 103.3C100.427 101.703 102.135 99.9955 103.732 98.1876L100.717 91.9359C102.562 89.6298 104.208 87.1714 105.637 84.5871L112.564 84.9609C113.622 82.7992 114.546 80.5745 115.331 78.2993L110.17 73.6452C110.982 70.8064 111.555 67.9045 111.882 64.9701L118.441 62.6611ZM59.5301 105.567C50.3275 105.573 41.3298 102.849 33.6756 97.7397C26.0213 92.6307 20.0545 85.3661 16.5301 76.8651C13.0056 68.364 12.0819 59.0086 13.8758 49.9825C15.6696 40.9563 20.1005 32.6651 26.6078 26.1578C33.1151 19.6506 41.4063 15.2197 50.4325 13.4258C59.4586 11.6319 68.814 12.5556 77.315 16.0801C85.8161 19.6045 93.0807 25.5714 98.1897 33.2256C103.299 40.8798 106.023 49.8775 106.017 59.0802C106.009 71.4067 101.108 83.226 92.3922 91.9422C83.676 100.658 71.8567 105.559 59.5301 105.567Z" fill="#B7B7C0"/>
<defs>
<clipPath id="clip0_98_591">
<rect width="38.0734" height="70.2242" fill="white" transform="translate(40.55 24.1)"/>
</clipPath>
</defs>
</svg>
