<svg width="113" height="65" viewBox="0 0 113 65" fill="none" xmlns="http://www.w3.org/2000/svg">
<path d="M45.904 38L47.056 35.248H52.464L53.616 38H54.96L50.24 26.848H49.28L44.56 38H45.904ZM49.76 28.784L51.984 34.096H47.536L49.76 28.784ZM58.2356 38V33.632H60.5556C61.4996 33.632 62.3156 33.312 62.9716 32.672C63.6276 32.016 63.9636 31.216 63.9636 30.24C63.9636 29.264 63.6276 28.464 62.9716 27.824C62.3156 27.168 61.4996 26.848 60.5556 26.848H56.9876V38H58.2356ZM58.2356 28H60.5076C61.1316 28 61.6596 28.208 62.0756 28.64C62.5076 29.072 62.7156 29.6 62.7156 30.24C62.7156 30.88 62.5076 31.408 62.0756 31.84C61.6596 32.272 61.1316 32.48 60.5076 32.48H58.2356V28ZM67.4715 38V26.848H66.2235V38H67.4715Z" fill="white"/>
<path d="M60.286 2.95528C59.2989 -0.985095 53.7052 -0.985095 52.714 2.95528L52.4256 4.11709C52.2568 4.79226 51.9105 5.40998 51.4224 5.90613C50.9344 6.40229 50.3225 6.7588 49.6502 6.93869C48.9779 7.11858 48.2697 7.11528 47.5991 6.92913C46.9285 6.74299 46.32 6.38078 45.8366 5.8801L45.0038 5.02297C42.1806 2.10221 37.3343 4.9011 38.4514 8.80492L38.7764 9.9586C38.9674 10.627 38.9762 11.3343 38.802 12.0073C38.6277 12.6803 38.2767 13.2945 37.7854 13.7862C37.294 14.278 36.6802 14.6295 36.0073 14.8043C35.3345 14.9791 34.6272 14.9709 33.9586 14.7805L32.8049 14.4514C28.9052 13.3343 26.1022 18.1806 29.023 21.0038L29.8801 21.8366C30.3808 22.32 30.743 22.9285 30.9291 23.5991C31.1153 24.2697 31.1186 24.9779 30.9387 25.6502C30.7588 26.3225 30.4023 26.9344 29.9061 27.4224C29.41 27.9105 28.7923 28.2568 28.1171 28.4256L26.9553 28.714C23.0149 29.7011 23.0149 35.2948 26.9553 36.286L28.1171 36.5744C28.7923 36.7432 29.41 37.0896 29.9061 37.5776C30.4023 38.0656 30.7588 38.6775 30.9387 39.3498C31.1186 40.0221 31.1153 40.7303 30.9291 41.4009C30.743 42.0715 30.3808 42.68 29.8801 43.1634L29.023 43.9962C26.1022 46.8194 28.9011 51.6657 32.8049 50.5486L33.9586 50.2236C34.6274 50.0323 35.3353 50.0233 36.0087 50.1977C36.6822 50.3721 37.2967 50.7235 37.7887 51.2154C38.2806 51.7073 38.6319 52.3219 38.8063 52.9953C38.9807 53.6688 38.9718 54.3766 38.7805 55.0455L38.4514 56.1951C37.3343 60.0948 42.1806 62.8978 45.0038 59.977L45.8366 59.1199C46.32 58.6192 46.9285 58.257 47.5991 58.0709C48.2697 57.8847 48.9779 57.8814 49.6502 58.0613C50.3225 58.2412 50.9344 58.5977 51.4224 59.0939C51.9105 59.59 52.2568 60.2077 52.4256 60.8829L52.714 62.0447C53.7011 65.9851 59.2948 65.9851 60.286 62.0447L60.5744 60.8829C60.7432 60.2077 61.0896 59.59 61.5776 59.0939C62.0656 58.5977 62.6775 58.2412 63.3498 58.0613C64.0221 57.8814 64.7303 57.8847 65.4009 58.0709C66.0715 58.257 66.68 58.6192 67.1634 59.1199L67.9962 59.977C70.8194 62.8978 75.6657 60.0989 74.5486 56.1951L74.2236 55.0414C74.0323 54.3726 74.0233 53.6647 74.1977 52.9913C74.3721 52.3178 74.7235 51.7033 75.2154 51.2113C75.7073 50.7194 76.3219 50.3681 76.9953 50.1937C77.6688 50.0193 78.3766 50.0282 79.0455 50.2195L80.1951 50.5486C84.0948 51.6657 86.8978 46.8194 83.977 43.9962L83.1199 43.1634C82.6192 42.68 82.257 42.0715 82.0709 41.4009C81.8847 40.7303 81.8814 40.0221 82.0613 39.3498C82.2412 38.6775 82.5977 38.0656 83.0939 37.5776C83.59 37.0896 84.2077 36.7432 84.8829 36.5744L86.0447 36.286C89.9851 35.2989 89.9851 29.7052 86.0447 28.714L84.8829 28.4256C84.2077 28.2568 83.59 27.9105 83.0939 27.4224C82.5977 26.9344 82.2412 26.3225 82.0613 25.6502C81.8814 24.9779 81.8847 24.2697 82.0709 23.5991C82.257 22.9285 82.6192 22.32 83.1199 21.8366L83.977 21.0038C86.8978 18.1806 84.0989 13.3343 80.1951 14.4514L79.0414 14.7764C78.373 14.9674 77.6657 14.9762 76.9927 14.802C76.3197 14.6277 75.7055 14.2767 75.2138 13.7854C74.722 13.294 74.3705 12.6802 74.1957 12.0073C74.0209 11.3345 74.0291 10.6272 74.2195 9.9586L74.5486 8.80492C75.6657 4.90516 70.8194 2.10221 67.9962 5.02297L67.1634 5.8801C66.68 6.38078 66.0715 6.74299 65.4009 6.92913C64.7303 7.11528 64.0221 7.11858 63.3498 6.93869C62.6775 6.7588 62.0656 6.40229 61.5776 5.90613C61.0896 5.40998 60.7432 4.79226 60.5744 4.11709L60.286 2.95528ZM56.5 52.799C53.8099 52.8371 51.139 52.3401 48.6426 51.337C46.1462 50.3338 43.8741 48.8445 41.9583 46.9556C40.0424 45.0667 38.5211 42.8159 37.4828 40.3339C36.4444 37.852 35.9097 35.1884 35.9097 32.498C35.9097 29.8076 36.4444 27.144 37.4828 24.662C38.5211 22.1801 40.0424 19.9292 41.9583 18.0403C43.8741 16.1514 46.1462 14.6621 48.6426 13.659C51.139 12.6558 53.8099 12.1588 56.5 12.1969C61.8847 12.1969 67.0489 14.336 70.8565 18.1435C74.664 21.9511 76.8031 27.1153 76.8031 32.5C76.8031 37.8847 74.664 43.0489 70.8565 46.8565C67.0489 50.664 61.8847 52.8031 56.5 52.8031V52.799Z" fill="white"/>
<path d="M112.707 24.7071C113.098 24.3166 113.098 23.6834 112.707 23.2929L106.343 16.9289C105.953 16.5384 105.319 16.5384 104.929 16.9289C104.538 17.3195 104.538 17.9526 104.929 18.3431L110.586 24L104.929 29.6569C104.538 30.0474 104.538 30.6805 104.929 31.0711C105.319 31.4616 105.953 31.4616 106.343 31.0711L112.707 24.7071ZM89 25H112V23H89V25Z" fill="white"/>
<path d="M89 41H106" stroke="white" stroke-width="2"/>
<path d="M0.292894 40.2929C-0.0976295 40.6834 -0.0976295 41.3166 0.292894 41.7071L6.65685 48.0711C7.04738 48.4616 7.68054 48.4616 8.07107 48.0711C8.46159 47.6805 8.46159 47.0474 8.07107 46.6569L2.41422 41L8.07107 35.3431C8.46159 34.9526 8.46159 34.3195 8.07107 33.9289C7.68054 33.5384 7.04738 33.5384 6.65685 33.9289L0.292894 40.2929ZM24 40H1V42H24V40Z" fill="white"/>
<path d="M24 24H7" stroke="white" stroke-width="2"/>
</svg>
