<svg width="79" height="24" viewBox="0 0 79 24" fill="none" xmlns="http://www.w3.org/2000/svg">
<path d="M79 14.1419V10.6674C79 10.5363 78.9467 10.4257 78.8607 10.3396C78.7746 10.2536 78.6599 10.2044 78.5329 10.2003L64.2968 10.2003C63.8597 7.92647 62.7491 5.83653 61.1091 4.2019C59.0113 2.10409 56.1145 0.805246 52.9104 0.805246L44.5602 0.805245C44.4375 0.80585 44.3201 0.854823 44.2334 0.941521C44.1467 1.02822 44.0978 1.14563 44.0972 1.26824V23.5329C44.0972 23.6641 44.1504 23.7747 44.2365 23.8607C44.3184 23.9427 44.4372 23.9959 44.5643 24L52.9145 24C58.5647 23.9959 63.2684 19.956 64.2968 14.609L78.5329 14.609C78.791 14.6049 79 14.396 79 14.1419ZM52.9104 20.0543L48.0429 20.0543V4.74684L52.9104 4.74684C54.9509 4.74684 56.8766 5.54172 58.323 6.98806C59.7693 8.43441 60.5642 10.3519 60.5642 12.4006C60.5642 14.441 59.7693 16.3668 58.323 17.8131C56.8766 19.2595 54.955 20.0502 52.9104 20.0543ZM40.8152 16.5634C40.8146 16.4408 40.7657 16.3234 40.679 16.2367C40.5923 16.15 40.4748 16.101 40.3522 16.1004H34.8946V8.70073L40.3604 8.70073C40.6145 8.70073 40.8234 8.49177 40.8234 8.23774V5.25491C40.8228 5.1323 40.7738 5.01489 40.6872 4.92819C40.6005 4.84149 40.483 4.79252 40.3604 4.79191L34.8946 4.79191V1.26824C34.8947 1.20704 34.8823 1.14647 34.8584 1.09014C34.8345 1.03382 34.7994 0.98291 34.7553 0.940455C34.6734 0.858509 34.5546 0.805245 34.4276 0.801147L26.0814 0.805245C20.4312 0.809343 15.7275 4.84928 14.6991 10.1962L0.462995 10.1962C0.340387 10.1968 0.222973 10.2458 0.136275 10.3325C0.0495777 10.4192 0.000605534 10.5366 9.53674e-07 10.6592L0 14.1337C0 14.2649 0.0532653 14.3755 0.139308 14.4615C0.225352 14.5476 0.340075 14.5967 0.467092 14.6008L14.7032 14.6008C15.1457 16.9199 16.2847 18.9931 17.8909 20.5993C19.9887 22.6971 22.8855 23.9959 26.0896 23.9959L34.4398 23.9959C34.6939 23.9959 34.9028 23.787 34.9028 23.5329V20.0093L40.3686 20.0093C40.6227 20.0093 40.8316 19.8003 40.8316 19.5463L40.8152 16.5634ZM26.0814 20.0543C25.0758 20.0569 24.0798 19.8602 23.1508 19.4755C22.2218 19.0908 21.3782 18.5258 20.6688 17.8131C19.2225 16.3668 18.4276 14.4492 18.4276 12.4006C18.425 11.3951 18.6218 10.399 19.0065 9.47C19.3912 8.54098 19.9562 7.69742 20.6688 6.98806C22.1152 5.54172 24.0327 4.74684 26.0814 4.74684L30.9489 4.74684V20.0543H26.0814Z" fill="#D9D9E0"/>
</svg>
