<svg width="160" height="46" viewBox="0 0 160 46" fill="none" xmlns="http://www.w3.org/2000/svg">
<path d="M154.074 0.92144C156.818 0.92144 159.05 3.08775 159.05 5.75V40.25C159.05 42.9123 156.818 45.0786 154.074 45.0786H5.92593C3.18222 45.0786 0.949629 42.9123 0.949629 40.25V5.75C0.949629 3.08775 3.18222 0.92144 5.92593 0.92144H154.074ZM154.074 3.8147e-06H5.92593C2.66815 3.8147e-06 0 2.58894 0 5.75V40.25C0 43.4111 2.66815 46 5.92593 46H154.074C157.332 46 160 43.4111 160 40.25V5.75C160 2.58894 157.332 3.8147e-06 154.074 3.8147e-06Z" fill="white"/>
<path d="M35.7086 22.7517C35.6742 19.0453 38.8363 17.2421 38.9809 17.1581C37.1901 14.6247 34.4144 14.2785 33.439 14.2509C31.1077 14.0129 28.8464 15.6045 27.6588 15.6045C26.4476 15.6045 24.6188 14.2739 22.6479 14.313C20.1116 14.351 17.7388 15.7758 16.4375 17.9884C13.7519 22.4999 15.7548 29.1296 18.3279 32.7763C19.615 34.5622 21.119 36.5563 23.0876 36.4862C25.0135 36.4091 25.7329 35.2948 28.057 35.2948C30.3599 35.2948 31.0354 36.4862 33.0431 36.4413C35.1101 36.4091 36.4114 34.6473 37.6535 32.8453C39.1409 30.7983 39.7382 28.7823 39.7619 28.6788C39.7133 28.6627 35.7477 27.1942 35.7086 22.7517Z" fill="white"/>
<path d="M31.916 11.852C32.9519 10.5951 33.6606 8.88501 33.4639 7.14966C31.9646 7.21406 30.0896 8.15591 29.0099 9.38526C28.0547 10.4686 27.2013 12.2442 27.4218 13.914C29.1059 14.0359 30.8351 13.0894 31.916 11.852Z" fill="white"/>
<path d="M58.1309 11.5103C58.1309 12.8638 57.7125 13.8827 56.877 14.567C56.1031 15.1983 55.0032 15.5146 53.5786 15.5146C52.8722 15.5146 52.2678 15.4847 51.7617 15.4249V8.0292C52.4219 7.9257 53.133 7.8728 53.901 7.8728C55.258 7.8728 56.2808 8.15915 56.9706 8.73185C57.7434 9.3793 58.1309 10.3051 58.1309 11.5103ZM56.8213 11.5436C56.8213 10.6662 56.5819 9.9934 56.1031 9.5242C55.6242 9.05615 54.925 8.82155 54.0041 8.82155C53.613 8.82155 53.2799 8.84685 53.0038 8.89975V14.5221C53.1567 14.5451 53.4364 14.5555 53.8429 14.5555C54.7934 14.5555 55.5271 14.299 56.0438 13.7861C56.5605 13.2732 56.8213 12.5257 56.8213 11.5436Z" fill="white"/>
<path d="M65.0736 12.6926C65.0736 13.5264 64.8282 14.2095 64.3376 14.7454C63.8232 15.2962 63.1417 15.5711 62.2908 15.5711C61.4706 15.5711 60.8176 15.3077 60.3305 14.7787C59.8445 14.2509 59.6016 13.585 59.6016 12.7823C59.6016 11.9428 59.8516 11.254 60.3542 10.7192C60.8567 10.1845 61.5322 9.9165 62.3832 9.9165C63.2033 9.9165 63.8623 10.1799 64.3613 10.7077C64.8353 11.2206 65.0736 11.883 65.0736 12.6926ZM63.7853 12.7317C63.7853 12.2315 63.6739 11.8025 63.4522 11.4449C63.1915 11.0125 62.8205 10.7963 62.3382 10.7963C61.8392 10.7963 61.4599 11.0125 61.1992 11.4449C60.9764 11.8025 60.8662 12.2384 60.8662 12.7536C60.8662 13.2538 60.9776 13.6828 61.1992 14.0404C61.4682 14.4728 61.8427 14.689 62.3263 14.689C62.8004 14.689 63.1725 14.4694 63.4404 14.0289C63.6703 13.6644 63.7853 13.232 63.7853 12.7317Z" fill="white"/>
<path d="M74.3858 10.0269L72.6377 15.448H71.4999L70.7758 13.0939C70.5921 12.5063 70.4427 11.9221 70.3266 11.3425H70.304C70.1962 11.9382 70.0469 12.5212 69.8549 13.0939L69.0857 15.448H67.9349L66.291 10.0269H67.5675L68.1992 12.604C68.352 13.2135 68.4777 13.7943 68.5784 14.344H68.6009C68.6934 13.8909 68.8463 13.3136 69.062 12.6155L69.8549 10.028H70.867L71.6267 12.5603C71.8104 13.1779 71.9598 13.7724 72.0747 14.3451H72.1091C72.1932 13.7874 72.3201 13.1928 72.4883 12.5603L73.1663 10.028H74.3858V10.0269Z" fill="white"/>
<path d="M80.8249 15.448H79.5828V12.343C79.5828 11.3862 79.2083 10.9078 78.4569 10.9078C78.0883 10.9078 77.7908 11.0389 77.5597 11.3023C77.331 11.5656 77.2148 11.8761 77.2148 12.2315V15.4469H75.9728V11.576C75.9728 11.0999 75.9574 10.5835 75.9277 10.0246H77.0193L77.0774 10.8722H77.1117C77.2563 10.6088 77.472 10.3915 77.7553 10.2178C78.0919 10.0154 78.4688 9.91309 78.8812 9.91309C79.4027 9.91309 79.8365 10.0764 80.1813 10.4041C80.6104 10.8055 80.8249 11.4046 80.8249 12.2004V15.448Z" fill="white"/>
<path d="M84.2506 15.4479H83.0098V7.53931H84.2506V15.4479Z" fill="white"/>
<path d="M91.5618 12.6926C91.5618 13.5264 91.3165 14.2095 90.8258 14.7454C90.3115 15.2962 89.6288 15.5711 88.779 15.5711C87.9577 15.5711 87.3047 15.3077 86.8187 14.7787C86.3328 14.2509 86.0898 13.585 86.0898 12.7823C86.0898 11.9428 86.3399 11.254 86.8424 10.7192C87.345 10.1845 88.0205 9.9165 88.8703 9.9165C89.6916 9.9165 90.3494 10.1799 90.8495 10.7077C91.3236 11.2206 91.5618 11.883 91.5618 12.6926ZM90.2724 12.7317C90.2724 12.2315 90.161 11.8025 89.9393 11.4449C89.6798 11.0125 89.3076 10.7963 88.8264 10.7963C88.3263 10.7963 87.947 11.0125 87.6875 11.4449C87.4647 11.8025 87.3544 12.2384 87.3544 12.7536C87.3544 13.2538 87.4658 13.6828 87.6875 14.0404C87.9565 14.4728 88.331 14.689 88.8146 14.689C89.2887 14.689 89.6596 14.4694 89.9275 14.0289C90.1586 13.6644 90.2724 13.232 90.2724 12.7317Z" fill="white"/>
<path d="M97.5749 15.448H96.4597L96.3672 14.8236H96.3329C95.9512 15.3215 95.4072 15.5711 94.7009 15.5711C94.1735 15.5711 93.7468 15.4066 93.4256 15.08C93.1341 14.7833 92.9883 14.4142 92.9883 13.976C92.9883 13.3136 93.2727 12.8088 93.8452 12.4592C94.4164 12.1096 95.22 11.9382 96.2547 11.9463V11.8451C96.2547 11.1309 95.8683 10.7744 95.0944 10.7744C94.5432 10.7744 94.0573 10.909 93.6378 11.1758L93.3853 10.3846C93.9044 10.0729 94.5456 9.9165 95.3018 9.9165C96.7619 9.9165 97.4944 10.664 97.4944 12.159V14.1554C97.4944 14.6971 97.5216 15.1283 97.5749 15.448ZM96.2855 13.585V12.749C94.9154 12.726 94.2304 13.0905 94.2304 13.8415C94.2304 14.1244 94.3086 14.336 94.4686 14.4774C94.6286 14.6189 94.8324 14.689 95.0754 14.689C95.348 14.689 95.6028 14.6051 95.8351 14.4383C96.0686 14.2704 96.212 14.0577 96.2653 13.7966C96.2784 13.738 96.2855 13.6667 96.2855 13.585Z" fill="white"/>
<path d="M104.632 15.4479H103.53L103.472 14.5773H103.437C103.085 15.2397 102.486 15.5709 101.643 15.5709C100.97 15.5709 100.409 15.3145 99.9649 14.8016C99.5205 14.2887 99.2988 13.6228 99.2988 12.8052C99.2988 11.9277 99.5394 11.217 100.023 10.6742C100.491 10.1682 101.065 9.91521 101.747 9.91521C102.498 9.91521 103.023 10.1602 103.321 10.6512H103.345V7.53931H104.588V13.9874C104.588 14.5152 104.603 15.0017 104.632 15.4479ZM103.345 13.1617V12.2578C103.345 12.1014 103.333 11.9749 103.311 11.8783C103.241 11.5885 103.09 11.3447 102.861 11.148C102.63 10.9514 102.352 10.8525 102.031 10.8525C101.567 10.8525 101.205 11.0307 100.938 11.3884C100.674 11.746 100.54 12.2026 100.54 12.7603C100.54 13.2962 100.667 13.7309 100.921 14.0656C101.19 14.4221 101.553 14.6003 102.007 14.6003C102.415 14.6003 102.741 14.452 102.988 14.1541C103.228 13.8793 103.345 13.5481 103.345 13.1617Z" fill="white"/>
<path d="M115.253 12.6926C115.253 13.5264 115.008 14.2095 114.517 14.7454C114.003 15.2962 113.323 15.5711 112.47 15.5711C111.651 15.5711 110.998 15.3077 110.51 14.7787C110.024 14.2509 109.781 13.585 109.781 12.7823C109.781 11.9428 110.031 11.254 110.534 10.7192C111.036 10.1845 111.712 9.9165 112.564 9.9165C113.383 9.9165 114.043 10.1799 114.541 10.7077C115.015 11.2206 115.253 11.883 115.253 12.6926ZM113.966 12.7317C113.966 12.2315 113.855 11.8025 113.633 11.4449C113.371 11.0125 113.001 10.7963 112.518 10.7963C112.02 10.7963 111.641 11.0125 111.379 11.4449C111.156 11.8025 111.046 12.2384 111.046 12.7536C111.046 13.2538 111.157 13.6828 111.379 14.0404C111.648 14.4728 112.022 14.689 112.506 14.689C112.98 14.689 113.353 14.4694 113.621 14.0289C113.85 13.6644 113.966 13.232 113.966 12.7317Z" fill="white"/>
<path d="M121.935 15.448H120.694V12.343C120.694 11.3862 120.32 10.9078 119.567 10.9078C119.198 10.9078 118.901 11.0389 118.671 11.3023C118.441 11.5656 118.326 11.8761 118.326 12.2315V15.4469H117.083V11.576C117.083 11.0999 117.069 10.5835 117.039 10.0246H118.129L118.188 10.8722H118.222C118.368 10.6088 118.583 10.3915 118.865 10.2178C119.203 10.0154 119.579 9.91309 119.993 9.91309C120.513 9.91309 120.947 10.0764 121.292 10.4041C121.722 10.8055 121.935 11.4046 121.935 12.2004V15.448Z" fill="white"/>
<path d="M130.293 10.9294H128.926V13.5629C128.926 14.2322 129.169 14.5668 129.65 14.5668C129.873 14.5668 130.057 14.5484 130.203 14.5105L130.235 15.4247C129.99 15.5144 129.668 15.5593 129.27 15.5593C128.78 15.5593 128.398 15.4144 128.122 15.1246C127.845 14.8348 127.707 14.3472 127.707 13.6629V10.9294H126.891V10.0266H127.707V9.03301L128.924 8.67651V10.0255H130.292V10.9294H130.293Z" fill="white"/>
<path d="M136.868 15.4479H135.625V12.3659C135.625 11.3941 135.25 10.9077 134.5 10.9077C133.924 10.9077 133.53 11.1894 133.315 11.7529C133.278 11.8714 133.257 12.0163 133.257 12.1865V15.4467H132.016V7.53931H133.257V10.8065H133.28C133.671 10.2119 134.232 9.91521 134.958 9.91521C135.473 9.91521 135.898 10.0785 136.236 10.4063C136.657 10.8145 136.868 11.4217 136.868 12.2244V15.4479Z" fill="white"/>
<path d="M143.649 12.4809C143.649 12.6971 143.632 12.8788 143.603 13.0271H139.877C139.894 13.563 140.072 13.9713 140.417 14.2542C140.732 14.5072 141.139 14.6337 141.636 14.6337C142.187 14.6337 142.69 14.5486 143.143 14.3772L143.337 15.2144C142.807 15.4375 142.184 15.5491 141.462 15.5491C140.597 15.5491 139.915 15.3018 139.422 14.8073C138.927 14.3128 138.682 13.6493 138.682 12.8167C138.682 11.999 138.91 11.3182 139.371 10.7754C139.853 10.1958 140.503 9.90601 141.325 9.90601C142.128 9.90601 142.739 10.1958 143.151 10.7754C143.484 11.2354 143.649 11.8047 143.649 12.4809ZM142.464 12.1692C142.473 11.8116 142.391 11.5034 142.223 11.2435C142.007 10.9088 141.679 10.7409 141.235 10.7409C140.829 10.7409 140.499 10.9042 140.246 11.232C140.04 11.493 139.918 11.8047 139.877 12.1692H142.464Z" fill="white"/>
<path d="M63.5792 36.2297H60.8877L59.4133 31.7344H54.2886L52.8841 36.2297H50.2637L55.341 20.9255H58.477L63.5792 36.2297ZM58.9689 29.8484L57.6355 25.8521C57.4945 25.4439 57.2302 24.4825 56.8403 22.9691H56.7929C56.6376 23.62 56.3875 24.5814 56.0438 25.8521L54.7342 29.8484H58.9689Z" fill="white"/>
<path d="M76.6359 30.5761C76.6359 32.4529 76.1132 33.9364 75.0679 35.0254C74.1316 35.9949 72.9689 36.479 71.5811 36.479C70.083 36.479 69.0069 35.9569 68.3514 34.9127H68.304V40.726H65.7772V28.8269C65.7772 27.647 65.7452 26.4361 65.6836 25.1941H67.9058L68.0469 26.9432H68.0943C68.9369 25.6253 70.2157 24.9675 71.9319 24.9675C73.2735 24.9675 74.3935 25.4816 75.2895 26.5108C76.1879 27.5412 76.6359 28.8959 76.6359 30.5761ZM74.0617 30.6658C74.0617 29.5917 73.8128 28.7062 73.3126 28.0093C72.7663 27.2825 72.0326 26.9191 71.1129 26.9191C70.4895 26.9191 69.923 27.1215 69.4169 27.5205C68.9097 27.923 68.5778 28.4486 68.4226 29.0995C68.3443 29.4031 68.3052 29.6515 68.3052 29.847V31.687C68.3052 32.4897 68.5589 33.167 69.0661 33.7202C69.5734 34.2733 70.2323 34.5493 71.043 34.5493C71.9947 34.5493 72.7354 34.1928 73.2652 33.4821C73.7962 32.7703 74.0617 31.8319 74.0617 30.6658Z" fill="white"/>
<path d="M89.7167 30.5761C89.7167 32.4529 89.1941 33.9364 88.1476 35.0254C87.2124 35.9949 86.0498 36.479 84.6619 36.479C83.1638 36.479 82.0877 35.9569 81.4335 34.9127H81.3861V40.726H78.8593V28.8269C78.8593 27.647 78.8273 26.4361 78.7656 25.1941H80.9878L81.1289 26.9432H81.1763C82.0178 25.6253 83.2966 24.9675 85.0139 24.9675C86.3544 24.9675 87.4744 25.4816 88.3727 26.5108C89.2676 27.5412 89.7167 28.8959 89.7167 30.5761ZM87.1425 30.6658C87.1425 29.5917 86.8924 28.7062 86.3923 28.0093C85.8459 27.2825 85.1147 26.9191 84.1938 26.9191C83.5692 26.9191 83.0038 27.1215 82.4966 27.5205C81.9893 27.923 81.6587 28.4486 81.5034 29.0995C81.4264 29.4031 81.3861 29.6515 81.3861 29.847V31.687C81.3861 32.4897 81.6397 33.167 82.1446 33.7202C82.6518 34.2722 83.3108 34.5493 84.1239 34.5493C85.0756 34.5493 85.8163 34.1928 86.3461 33.4821C86.877 32.7703 87.1425 31.8319 87.1425 30.6658Z" fill="white"/>
<path d="M104.342 31.9378C104.342 33.2396 103.876 34.2988 102.941 35.1164C101.913 36.01 100.483 36.4562 98.6443 36.4562C96.9472 36.4562 95.5866 36.1388 94.5566 35.5028L95.1421 33.4593C96.2515 34.1102 97.4686 34.4368 98.7949 34.4368C99.7466 34.4368 100.487 34.2275 101.019 33.8112C101.549 33.3949 101.814 32.836 101.814 32.1391C101.814 31.5181 101.595 30.9948 101.158 30.5705C100.723 30.1461 99.9966 29.7517 98.9821 29.3871C96.2206 28.3878 94.8411 26.9238 94.8411 24.9987C94.8411 23.7406 95.3246 22.7091 96.2929 21.9064C97.2577 21.1025 98.5448 20.7012 100.154 20.7012C101.59 20.7012 102.782 20.9438 103.734 21.428L103.102 23.4267C102.213 22.9575 101.208 22.7229 100.083 22.7229C99.1943 22.7229 98.4998 22.9356 98.002 23.3588C97.5812 23.7372 97.3703 24.1983 97.3703 24.7446C97.3703 25.3495 97.6109 25.8497 98.0944 26.243C98.5152 26.6064 99.2796 26.9997 100.389 27.4241C101.746 27.9542 102.743 28.5741 103.384 29.2848C104.023 29.9932 104.342 30.8798 104.342 31.9378Z" fill="white"/>
<path d="M112.696 27.0342H109.911V32.3921C109.911 33.7548 110.401 34.4356 111.385 34.4356C111.836 34.4356 112.211 34.3977 112.507 34.3218L112.577 36.1836C112.079 36.3642 111.424 36.455 110.612 36.455C109.614 36.455 108.834 36.1595 108.271 35.5695C107.711 34.9784 107.429 33.9871 107.429 32.5945V27.0319H105.77V25.1919H107.429V23.1714L109.911 22.4446V25.1919H112.696V27.0342Z" fill="white"/>
<path d="M125.263 30.6212C125.263 32.3175 124.762 33.7101 123.765 34.7992C122.718 35.9204 121.329 36.4793 119.597 36.4793C117.929 36.4793 116.6 35.9423 115.609 34.8682C114.618 33.7941 114.123 32.4382 114.123 30.8041C114.123 29.094 114.633 27.6933 115.655 26.6043C116.676 25.5141 118.053 24.969 119.785 24.969C121.453 24.969 122.796 25.506 123.81 26.5813C124.779 27.6243 125.263 28.971 125.263 30.6212ZM122.641 30.7006C122.641 29.6828 122.417 28.81 121.963 28.082C121.433 27.2011 120.676 26.7618 119.695 26.7618C118.679 26.7618 117.907 27.2023 117.378 28.082C116.924 28.8111 116.7 29.6978 116.7 30.7466C116.7 31.7643 116.924 32.6372 117.378 33.364C117.924 34.2449 118.687 34.6842 119.672 34.6842C120.637 34.6842 121.394 34.2357 121.941 33.341C122.406 32.5992 122.641 31.7172 122.641 30.7006Z" fill="white"/>
<path d="M133.477 27.3503C133.227 27.3055 132.961 27.2825 132.681 27.2825C131.792 27.2825 131.105 27.6079 130.621 28.26C130.2 28.835 129.989 29.5618 129.989 30.4392V36.2295H127.464L127.487 28.6694C127.487 27.3975 127.455 26.2394 127.393 25.1952H129.593L129.686 27.3066H129.756C130.023 26.581 130.443 25.9968 131.019 25.5586C131.582 25.1642 132.19 24.9675 132.846 24.9675C133.079 24.9675 133.29 24.9836 133.477 25.0124V27.3503Z" fill="white"/>
<path d="M144.777 30.1899C144.777 30.6292 144.748 30.9995 144.685 31.3019H137.104C137.134 32.3921 137.5 33.2259 138.204 33.8009C138.843 34.3149 139.669 34.5725 140.684 34.5725C141.806 34.5725 142.83 34.3989 143.751 34.0504L144.147 35.7524C143.071 36.2078 141.8 36.4344 140.334 36.4344C138.57 36.4344 137.186 35.9307 136.179 34.9244C135.174 33.9182 134.67 32.5669 134.67 30.8718C134.67 29.2078 135.138 27.822 136.076 26.7169C137.057 25.537 138.383 24.947 140.052 24.947C141.691 24.947 142.932 25.537 143.775 26.7169C144.442 27.6541 144.777 28.8133 144.777 30.1899ZM142.368 29.5539C142.384 28.8271 142.22 28.1992 141.877 27.6691C141.44 26.9871 140.768 26.6467 139.863 26.6467C139.037 26.6467 138.365 26.9791 137.852 27.6461C137.431 28.1762 137.181 28.8122 137.104 29.5528H142.368V29.5539Z" fill="white"/>
</svg>
