<svg width="199" height="199" viewBox="0 0 199 199" fill="none" xmlns="http://www.w3.org/2000/svg">
<path d="M167.906 37.3125H31.0938C27.7951 37.3125 24.6316 38.6229 22.2991 40.9554C19.9666 43.2878 18.6563 46.4514 18.6563 49.75V173.192C18.6248 175.563 19.2844 177.891 20.5544 179.892C21.8244 181.894 23.6499 183.482 25.8078 184.464C27.4484 185.286 29.2588 185.712 31.0938 185.707C34.0275 185.698 36.8634 184.652 39.1004 182.754L64.1309 161.688H167.906C171.205 161.688 174.368 160.377 176.701 158.045C179.033 155.712 180.344 152.549 180.344 149.25V49.75C180.344 46.4514 179.033 43.2878 176.701 40.9554C174.368 38.6229 171.205 37.3125 167.906 37.3125ZM167.906 149.25H64.1309C61.1922 149.232 58.347 150.282 56.1242 152.204L31.0938 173.192V49.75H167.906V149.25ZM90.1719 99.5C90.1719 97.6551 90.719 95.8516 91.7439 94.3176C92.7689 92.7836 94.2258 91.588 95.9303 90.8819C97.6348 90.1759 99.5104 89.9912 101.32 90.3511C103.129 90.711 104.791 91.5995 106.096 92.904C107.401 94.2086 108.289 95.8707 108.649 97.6802C109.009 99.4897 108.824 101.365 108.118 103.07C107.412 104.774 106.216 106.231 104.682 107.256C103.148 108.281 101.345 108.828 99.5 108.828C97.026 108.828 94.6534 107.845 92.904 106.096C91.1547 104.347 90.1719 101.974 90.1719 99.5ZM52.8594 99.5C52.8594 97.6551 53.4065 95.8516 54.4314 94.3176C55.4564 92.7836 56.9133 91.588 58.6178 90.8819C60.3223 90.1759 62.1979 89.9912 64.0073 90.3511C65.8168 90.711 67.4789 91.5995 68.7835 92.904C70.088 94.2086 70.9765 95.8707 71.3364 97.6802C71.6963 99.4897 71.5116 101.365 70.8056 103.07C70.0995 104.774 68.9039 106.231 67.3699 107.256C65.8359 108.281 64.0324 108.828 62.1875 108.828C59.7135 108.828 57.3409 107.845 55.5915 106.096C53.8422 104.347 52.8594 101.974 52.8594 99.5ZM127.484 99.5C127.484 97.6551 128.031 95.8516 129.056 94.3176C130.081 92.7836 131.538 91.588 133.243 90.8819C134.947 90.1759 136.823 89.9912 138.632 90.3511C140.442 90.711 142.104 91.5995 143.408 92.904C144.713 94.2086 145.601 95.8707 145.961 97.6802C146.321 99.4897 146.137 101.365 145.431 103.07C144.725 104.774 143.529 106.231 141.995 107.256C140.461 108.281 138.657 108.828 136.812 108.828C134.339 108.828 131.966 107.845 130.217 106.096C128.467 104.347 127.484 101.974 127.484 99.5Z" fill="#254FD8"/>
</svg>
