<svg width="40" height="40" viewBox="0 0 40 40" fill="none" xmlns="http://www.w3.org/2000/svg">
<path d="M32.5 20C32.4983 18.0372 32.0349 16.1023 31.1474 14.3515C30.2598 12.6008 28.9729 11.0834 27.3906 9.9219L26.4219 4.5469C26.3156 3.97042 26.0102 3.4496 25.5589 3.07546C25.1077 2.70132 24.5393 2.49764 23.9531 2.50002H16.0469C15.4607 2.49764 14.8923 2.70132 14.4411 3.07546C13.9898 3.4496 13.6844 3.97042 13.5781 4.5469L12.6094 9.9219C11.0269 11.083 9.74014 12.6004 8.85319 14.3513C7.96624 16.1022 7.50406 18.0373 7.50406 20C7.50406 21.9627 7.96624 23.8979 8.85319 25.6488C9.74014 27.3996 11.0269 28.9171 12.6094 30.0782L13.5781 35.4532C13.6844 36.0296 13.9898 36.5504 14.4411 36.9246C14.8923 37.2987 15.4607 37.5024 16.0469 37.5H23.9531C24.5393 37.5024 25.1077 37.2987 25.5589 36.9246C26.0102 36.5504 26.3156 36.0296 26.4219 35.4532L27.3906 30.0782C28.9729 28.9166 30.2598 27.3992 31.1474 25.6485C32.0349 23.8978 32.4983 21.9629 32.5 20ZM16.0469 5.00002H23.9531L24.5625 8.37502C21.6328 7.2079 18.3672 7.2079 15.4375 8.37502L16.0469 5.00002ZM10 20C10 18.0222 10.5865 16.0888 11.6853 14.4443C12.7841 12.7998 14.3459 11.5181 16.1732 10.7612C18.0004 10.0044 20.0111 9.80632 21.9509 10.1922C23.8907 10.578 25.6725 11.5304 27.0711 12.929C28.4696 14.3275 29.422 16.1093 29.8078 18.0491C30.1937 19.9889 29.9957 21.9996 29.2388 23.8269C28.4819 25.6541 27.2002 27.2159 25.5557 28.3147C23.9112 29.4135 21.9778 30 20 30C17.3491 29.9959 14.808 28.941 12.9335 27.0665C11.059 25.1921 10.0041 22.6509 10 20ZM23.9531 35H16.0469L15.4375 31.625C18.3672 32.7922 21.6328 32.7922 24.5625 31.625L23.9531 35ZM18.75 20V13.75C18.75 13.4185 18.8817 13.1006 19.1161 12.8661C19.3505 12.6317 19.6685 12.5 20 12.5C20.3315 12.5 20.6495 12.6317 20.8839 12.8661C21.1183 13.1006 21.25 13.4185 21.25 13.75V18.75H26.25C26.5815 18.75 26.8995 18.8817 27.1339 19.1161C27.3683 19.3506 27.5 19.6685 27.5 20C27.5 20.3315 27.3683 20.6495 27.1339 20.8839C26.8995 21.1183 26.5815 21.25 26.25 21.25H20C19.6685 21.25 19.3505 21.1183 19.1161 20.8839C18.8817 20.6495 18.75 20.3315 18.75 20Z" fill="#545461"/>
</svg>
