<svg width="40" height="40" viewBox="0 0 40 40" fill="none" xmlns="http://www.w3.org/2000/svg">
<path d="M27.1875 7.46877C25.256 5.23934 23.0869 3.22742 20.7188 1.46877C20.5074 1.32296 20.2567 1.24487 20 1.24487C19.7433 1.24487 19.4926 1.32296 19.2812 1.46877C16.9131 3.22742 14.744 5.23934 12.8125 7.46877C8.51562 12.3906 6.25 17.5938 6.25 22.5C6.25 26.1467 7.69866 29.6441 10.2773 32.2227C12.8559 34.8014 16.3533 36.25 20 36.25C23.6467 36.25 27.1441 34.8014 29.7227 32.2227C32.3013 29.6441 33.75 26.1467 33.75 22.5C33.75 17.5938 31.4844 12.3906 27.1875 7.46877ZM20 33.75C17.0176 33.7459 14.1585 32.5593 12.0496 30.4504C9.94073 28.3415 8.75413 25.4824 8.75 22.5C8.75 13.5625 17.4219 6.09377 20 4.06252C22.5781 6.09377 31.25 13.5625 31.25 22.5C31.2459 25.4824 30.0593 28.3415 27.9504 30.4504C25.8415 32.5593 22.9824 33.7459 20 33.75ZM28.625 23.9688C28.3219 25.755 27.4699 27.4024 26.1874 28.6821C24.9049 29.9618 23.2556 30.8102 21.4687 31.1094H21.2656C20.9507 31.1109 20.6467 30.9936 20.4146 30.7807C20.1825 30.5678 20.0393 30.2752 20.0136 29.9613C19.9879 29.6474 20.0817 29.3353 20.2762 29.0876C20.4706 28.8398 20.7515 28.6746 21.0625 28.625C22.3361 28.4118 23.5114 27.8064 24.4245 26.8933C25.3377 25.9802 25.943 24.8049 26.1562 23.5313C26.1845 23.3689 26.2446 23.2138 26.3331 23.0748C26.4215 22.9358 26.5366 22.8157 26.6716 22.7213C26.8067 22.6269 26.959 22.5601 27.12 22.5248C27.2809 22.4895 27.4472 22.4864 27.6094 22.5156C27.7726 22.5419 27.9289 22.6008 28.069 22.6886C28.2091 22.7765 28.3301 22.8916 28.4248 23.0272C28.5196 23.1627 28.5861 23.3159 28.6205 23.4776C28.6549 23.6394 28.6564 23.8064 28.625 23.9688Z" fill="#545461"/>
</svg>
