<svg width="127" height="24" viewBox="0 0 127 24" fill="none" xmlns="http://www.w3.org/2000/svg">
<g clip-path="url(#clip0_122_589)">
<path d="M49.8466 4.59648H53.3298V5.78642C53.7038 5.46084 54.9113 4.30466 57.1415 4.30466C59.7659 4.30466 61.8509 6.24204 61.8509 9.28418V17.1809H58.1717V10.263C58.1717 8.56699 57.3447 7.56101 55.8478 7.56101C54.3978 7.56101 53.5253 8.50954 53.5253 10.263V17.1809H49.8466V4.59648ZM84.8908 10.8884C84.8908 7.2581 87.7978 4.30466 91.6051 4.30466C95.4113 4.30466 98.3173 7.2581 98.3173 10.8884C98.3173 14.5177 95.4108 17.4676 91.6051 17.4676C87.7978 17.4676 84.8908 14.5177 84.8908 10.8884ZM88.5226 10.8884C88.5226 12.6267 89.8214 14.0571 91.6267 14.0571C93.4351 14.0571 94.7359 12.6267 94.7359 10.8884C94.7359 9.14911 93.4351 7.71977 91.6267 7.71977C89.8219 7.71977 88.5226 9.14911 88.5226 10.8884ZM34.3628 10.8909C34.3628 7.25911 37.2713 4.30567 41.075 4.30567C44.8832 4.30567 47.7908 7.25911 47.7908 10.8909C47.7908 14.5192 44.8832 17.4681 41.075 17.4681C37.2708 17.4686 34.3628 14.5192 34.3628 10.8909ZM37.9946 10.8899C37.9946 12.6292 39.2934 14.0596 41.1007 14.0596C42.9091 14.0596 44.2079 12.6292 44.2079 10.8899C44.2079 9.14911 42.9091 7.72128 41.1007 7.72128C39.2934 7.72128 37.9946 9.14911 37.9946 10.8899ZM116.164 3.20242H119.894V0H116.164V3.20242ZM116.164 17.1809H119.894V4.59648H116.164V17.1809ZM122.769 17.1809H126.5V0H122.769V17.1809ZM104.011 17.1809H100.474V0H104.051V5.59541C104.228 5.46487 105.387 4.30466 107.919 4.30466C111.23 4.30466 113.993 7.14823 113.993 10.8909C113.993 14.6266 111.05 17.4702 107.876 17.4702C105.462 17.4702 104.311 16.4097 104.051 16.2122L104.011 17.1809ZM110.214 10.8814C110.214 9.11182 108.872 7.73892 107.075 7.73892C105.289 7.73892 103.918 9.09922 103.918 10.8914C103.918 12.661 105.271 14.0339 107.071 14.0339C108.854 14.0334 110.214 12.6559 110.214 10.8814ZM12.6716 17.1809H16.9853L20.8631 12.1973L23.2808 14.6462L17.7484 21.5732H22.0772L25.6199 16.9823L32.2878 23.7686H37.5138L27.9302 14.1317L35.4776 4.59648H31.1462L25.5685 11.7583L23.1548 9.33206L29.3595 1.51805H25.0398L20.8021 6.97032L18.5009 4.59648H13.347L18.5382 9.83758L12.6716 17.1809ZM0.5 0V17.1809H11.8153V13.9749H4.34955V9.86983H11.4801V6.76217H4.34955V3.2009H11.8153V0H0.5ZM64.7978 0V17.1809H68.418V4.2084H68.5823L71.6971 17.1814H75.7638L78.9516 4.2084H79.1164V17.1814H82.7362V0H76.8248L73.8814 12.539H73.7504L70.8801 0H64.7978Z" fill="#ED1B2D"/>
</g>
<defs>
<clipPath id="clip0_122_589">
<rect width="126" height="23.7686" fill="white" transform="translate(0.5)"/>
</clipPath>
</defs>
</svg>
