<svg width="56" height="56" viewBox="0 0 56 56" fill="none" xmlns="http://www.w3.org/2000/svg">
<path d="M50.75 45.5C50.75 45.9641 50.5656 46.4092 50.2374 46.7374C49.9092 47.0656 49.4641 47.25 49 47.25H7C6.53587 47.25 6.09075 47.0656 5.76256 46.7374C5.43437 46.4092 5.25 45.9641 5.25 45.5V10.5C5.25 10.0359 5.43437 9.59075 5.76256 9.26256C6.09075 8.93437 6.53587 8.75 7 8.75C7.46413 8.75 7.90925 8.93437 8.23744 9.26256C8.56563 9.59075 8.75 10.0359 8.75 10.5V34.2781L19.7531 23.2531C20.0849 22.9245 20.533 22.7402 21 22.7402C21.467 22.7402 21.9151 22.9245 22.2469 23.2531L28 29.0281L41.2781 15.75H36.75C36.2859 15.75 35.8407 15.5656 35.5126 15.2374C35.1844 14.9092 35 14.4641 35 14C35 13.5359 35.1844 13.0908 35.5126 12.7626C35.8407 12.4344 36.2859 12.25 36.75 12.25H45.5C45.9641 12.25 46.4092 12.4344 46.7374 12.7626C47.0656 13.0908 47.25 13.5359 47.25 14V22.75C47.25 23.2141 47.0656 23.6592 46.7374 23.9874C46.4092 24.3156 45.9641 24.5 45.5 24.5C45.0359 24.5 44.5908 24.3156 44.2626 23.9874C43.9344 23.6592 43.75 23.2141 43.75 22.75V18.2219L29.2469 32.7469C28.9151 33.0755 28.467 33.2598 28 33.2598C27.533 33.2598 27.0849 33.0755 26.7531 32.7469L21 26.9719L8.75 39.2219V43.75H49C49.4641 43.75 49.9092 43.9344 50.2374 44.2626C50.5656 44.5908 50.75 45.0359 50.75 45.5Z" fill="white"/>
</svg>
