<svg width="56" height="56" viewBox="0 0 56 56" fill="none" xmlns="http://www.w3.org/2000/svg">
<path d="M35 3.5C32.2377 3.50333 29.5153 4.15971 27.0549 5.41559C24.5946 6.67147 22.466 8.49125 20.8429 10.7265C19.2199 12.9616 18.1483 15.5489 17.7156 18.2772C17.2829 21.0054 17.5013 23.7973 18.3531 26.425L5.75312 39.0031C5.42811 39.3365 5.24737 39.7844 5.25 40.25V49C5.25 49.4641 5.43437 49.9092 5.76256 50.2374C6.09075 50.5656 6.53587 50.75 7 50.75H15.75C16.2141 50.75 16.6592 50.5656 16.9874 50.2374C17.3156 49.9092 17.5 49.4641 17.5 49V45.5H21C21.4641 45.5 21.9092 45.3156 22.2374 44.9874C22.5656 44.6592 22.75 44.2141 22.75 43.75V40.25H26.25C26.7156 40.2526 27.1635 40.0719 27.4969 39.7469L29.575 37.6469C31.9798 38.4266 34.525 38.676 37.0354 38.3779C39.5458 38.0799 41.9618 37.2415 44.1172 35.9205C46.2726 34.5994 48.1162 32.8271 49.5211 30.7254C50.926 28.6237 51.8589 26.2425 52.2555 23.7458C52.6522 21.2491 52.5032 18.6961 51.8188 16.2625C51.1345 13.8288 49.9309 11.5724 48.2911 9.64834C46.6513 7.72433 44.614 6.17844 42.3196 5.11706C40.0252 4.05568 37.528 3.504 35 3.5ZM35 35C33.2251 35.0035 31.4657 34.6694 29.8156 34.0156C29.4949 33.8753 29.139 33.8357 28.7953 33.9022C28.4515 33.9686 28.1361 34.1378 27.8906 34.3875L25.5281 36.75H21C20.5359 36.75 20.0908 36.9344 19.7626 37.2626C19.4344 37.5908 19.25 38.0359 19.25 38.5V42H15.75C15.2859 42 14.8408 42.1844 14.5126 42.5126C14.1844 42.8408 14 43.2859 14 43.75V47.25H8.75V40.9719L21.6125 28.1094C21.8622 27.8639 22.0314 27.5485 22.0978 27.2047C22.1643 26.861 22.1247 26.5051 21.9844 26.1844C20.8753 23.4023 20.6876 20.3378 21.449 17.4412C22.2103 14.5445 23.8805 11.9684 26.2143 10.0912C28.548 8.21396 31.4223 7.13465 34.4148 7.01179C37.4073 6.88893 40.3603 7.72898 42.8401 9.40856C45.3199 11.0881 47.1956 13.5187 48.1919 16.3432C49.1881 19.1677 49.2523 22.2372 48.375 25.1009C47.4977 27.9645 45.7252 30.4714 43.3178 32.2531C40.9104 34.0349 37.995 34.9977 35 35ZM42 16.625C42 17.1442 41.846 17.6517 41.5576 18.0834C41.2692 18.515 40.8592 18.8515 40.3795 19.0502C39.8999 19.2489 39.3721 19.3008 38.8629 19.1996C38.3537 19.0983 37.886 18.8483 37.5188 18.4812C37.1517 18.114 36.9017 17.6463 36.8004 17.1371C36.6992 16.6279 36.7511 16.1001 36.9498 15.6205C37.1485 15.1408 37.4849 14.7308 37.9166 14.4424C38.3483 14.154 38.8558 14 39.375 14C40.0712 14 40.7389 14.2766 41.2312 14.7688C41.7234 15.2611 42 15.9288 42 16.625Z" fill="white"/>
</svg>
