<svg width="56" height="56" viewBox="0 0 56 56" fill="none" xmlns="http://www.w3.org/2000/svg">
<path d="M50.7281 46.375C47.4628 40.75 42.236 36.5281 36.05 34.5188C39.0151 32.7556 41.3193 30.0676 42.6086 26.8679C43.898 23.6681 44.1011 20.1336 43.1868 16.8072C42.2725 13.4808 40.2913 10.5466 37.5477 8.45533C34.8041 6.36407 31.4498 5.23145 28 5.23145C24.5502 5.23145 21.1959 6.36407 18.4523 8.45533C15.7087 10.5466 13.7275 13.4808 12.8132 16.8072C11.8989 20.1336 12.102 23.6681 13.3914 26.8679C14.6807 30.0676 16.9849 32.7556 19.95 34.5188C13.764 36.5281 8.53723 40.75 5.27188 46.375C5.13492 46.5737 5.04053 46.7986 4.99465 47.0355C4.94877 47.2725 4.95239 47.5163 5.00529 47.7518C5.05818 47.9872 5.15919 48.2092 5.30199 48.4038C5.44479 48.5983 5.62628 48.7612 5.83506 48.8822C6.04384 49.0033 6.2754 49.0798 6.51518 49.107C6.75496 49.1343 6.99779 49.1116 7.2284 49.0405C7.45901 48.9694 7.67242 48.8514 7.85522 48.6938C8.03802 48.5363 8.18626 48.3426 8.29063 48.125C10.2908 44.6687 13.1648 41.7992 16.6241 39.8043C20.0835 37.8094 24.0066 36.7593 28 36.7593C31.9934 36.7593 35.9165 37.8094 39.3759 39.8043C42.8352 41.7992 45.7092 44.6687 47.7094 48.125C47.8137 48.3426 47.962 48.5363 48.1448 48.6938C48.3276 48.8514 48.541 48.9694 48.7716 49.0405C49.0022 49.1116 49.245 49.1343 49.4848 49.107C49.7246 49.0798 49.9562 49.0033 50.1649 48.8822C50.3737 48.7612 50.5552 48.5983 50.698 48.4038C50.8408 48.2092 50.9418 47.9872 50.9947 47.7518C51.0476 47.5163 51.0512 47.2725 51.0053 47.0355C50.9595 46.7986 50.8651 46.5737 50.7281 46.375ZM15.75 21.0001C15.75 18.5772 16.4684 16.2088 17.8145 14.1943C19.1605 12.1798 21.0737 10.6097 23.3121 9.68253C25.5505 8.75535 28.0136 8.51276 30.3899 8.98543C32.7661 9.4581 34.9489 10.6248 36.6621 12.338C38.3752 14.0512 39.5419 16.2339 40.0146 18.6102C40.4873 20.9865 40.2447 23.4495 39.3175 25.6879C38.3903 27.9263 36.8202 29.8395 34.8057 31.1856C32.7912 32.5316 30.4228 33.25 28 33.25C24.7511 33.25 21.6353 31.9594 19.3379 29.6621C17.0406 27.3648 15.75 24.249 15.75 21.0001Z" fill="white"/>
</svg>
