<svg width="46" height="46" viewBox="0 0 46 46" fill="none" xmlns="http://www.w3.org/2000/svg">
<path d="M39.2312 38.9251C43.4101 34.6779 45.7521 28.9584 45.7521 23.0001C45.7521 17.0418 43.4101 11.3223 39.2312 7.07512C39.1919 7.01356 39.1397 6.96131 39.0781 6.92199C39.0388 6.86044 38.9865 6.80819 38.925 6.76887C34.6778 2.59003 28.9583 0.248047 23 0.248047C17.0417 0.248047 11.3222 2.59003 7.075 6.76887C7.01345 6.80819 6.9612 6.86044 6.92187 6.92199C6.86032 6.96131 6.80807 7.01356 6.76875 7.07512C2.58991 11.3223 0.247931 17.0418 0.247931 23.0001C0.247931 28.9584 2.58991 34.6779 6.76875 38.9251L6.92187 39.0782C6.9612 39.1398 7.01345 39.192 7.075 39.2314C11.3222 43.4102 17.0417 45.7522 23 45.7522C28.9583 45.7522 34.6778 43.4102 38.925 39.2314C38.9865 39.192 39.0388 39.1398 39.0781 39.0782C39.1397 39.0389 39.1919 38.9867 39.2312 38.9251ZM37.7875 35.3157L31.5531 29.0814C32.8184 27.306 33.4984 25.1802 33.4984 23.0001C33.4984 20.82 32.8184 18.6942 31.5531 16.9189L37.7875 10.6845C40.6703 14.141 42.2492 18.4992 42.2492 23.0001C42.2492 27.501 40.6703 31.8593 37.7875 35.3157ZM16 23.0001C16 21.6156 16.4105 20.2623 17.1797 19.1111C17.9489 17.96 19.0421 17.0628 20.3212 16.533C21.6003 16.0031 23.0078 15.8645 24.3656 16.1346C25.7235 16.4047 26.9708 17.0714 27.9497 18.0504C28.9287 19.0293 29.5954 20.2766 29.8655 21.6345C30.1356 22.9923 29.997 24.3998 29.4672 25.6789C28.9373 26.958 28.0401 28.0512 26.889 28.8204C25.7378 29.5896 24.3845 30.0001 23 30.0001C21.1453 29.9943 19.3681 29.255 18.0566 27.9435C16.7451 26.632 16.0058 24.8549 16 23.0001ZM35.3156 8.21262L29.0812 14.447C27.3059 13.1817 25.1801 12.5017 23 12.5017C20.8199 12.5017 18.6941 13.1817 16.9187 14.447L10.6844 8.21262C14.1409 5.3298 18.4991 3.75088 23 3.75088C27.5009 3.75088 31.8591 5.3298 35.3156 8.21262ZM8.2125 10.6845L14.4469 16.9189C13.1816 18.6942 12.5016 20.82 12.5016 23.0001C12.5016 25.1802 13.1816 27.306 14.4469 29.0814L8.2125 35.3157C5.32968 31.8593 3.75076 27.501 3.75076 23.0001C3.75076 18.4992 5.32968 14.141 8.2125 10.6845ZM10.6844 37.7876L16.9187 31.5532C18.6941 32.8185 20.8199 33.4985 23 33.4985C25.1801 33.4985 27.3059 32.8185 29.0812 31.5532L35.3156 37.7876C31.8591 40.6704 27.5009 42.2494 23 42.2494C18.4991 42.2494 14.1409 40.6704 10.6844 37.7876Z" fill="white"/>
</svg>
