<svg width="119" height="35" viewBox="0 0 119 35" fill="none" xmlns="http://www.w3.org/2000/svg">
<path d="M28 22.3756V10.1133H35.4118V12.1021H30.2112V15.178H34.9671V17.1668H30.2112V22.3756H28Z" fill="#737380"/>
<path d="M36.6059 11.2044C36.601 10.9545 36.6705 10.7089 36.8056 10.4986C36.9406 10.2884 37.1352 10.123 37.3645 10.0236C37.5937 9.92424 37.8474 9.89527 38.0932 9.94039C38.339 9.98552 38.5658 10.1027 38.7448 10.2771C38.9238 10.4514 39.0469 10.6751 39.0985 10.9196C39.1501 11.1641 39.1278 11.4185 39.0345 11.6503C38.9411 11.8821 38.781 12.0809 38.5744 12.2215C38.3678 12.362 38.124 12.438 37.8741 12.4396C37.7091 12.4441 37.545 12.4154 37.3913 12.3552C37.2376 12.2951 37.0975 12.2048 36.9793 12.0897C36.861 11.9745 36.7671 11.8369 36.703 11.6848C36.6388 11.5328 36.6058 11.3694 36.6059 11.2044ZM36.82 13.4896H38.9282V19.7361C38.9282 20.4197 39.0682 20.6667 39.5459 20.6667C39.6688 20.6673 39.7915 20.6562 39.9124 20.6338V22.4085C39.5727 22.5201 39.2153 22.5676 38.8582 22.5485C37.5035 22.5485 36.7994 21.7949 36.7994 20.3002L36.82 13.4896Z" fill="#737380"/>
<path d="M41.1723 22.3756V13.5062H43.2682V14.7744C43.68 13.9138 44.6723 13.3333 45.9241 13.3333C48.0159 13.3333 49.2182 14.688 49.2182 16.8868V19.6827C49.2182 20.3703 49.3418 20.6133 49.8153 20.6133C49.9163 20.6113 50.0169 20.6003 50.1159 20.5803V22.355C49.8175 22.4326 49.5099 22.4686 49.2018 22.4621C47.81 22.4621 47.1429 21.688 47.1429 20.1397V17.1833C47.1429 15.948 46.4553 15.215 45.2776 15.215C45.0073 15.2059 44.738 15.2534 44.487 15.3544C44.236 15.4553 44.0089 15.6076 43.8201 15.8014C43.6314 15.9952 43.4851 16.2262 43.3908 16.4798C43.2965 16.7333 43.2561 17.0038 43.2723 17.2738V22.3756H41.1723Z" fill="#737380"/>
<path d="M52.8582 20.7903C52.2467 20.2078 51.7635 19.504 51.4395 18.7241C51.1154 17.9442 50.9577 17.1052 50.9765 16.2608C50.9577 15.4165 51.1154 14.5775 51.4395 13.7976C51.7635 13.0177 52.2467 12.3139 52.8582 11.7314C54.093 10.545 55.739 9.88232 57.4515 9.88232C59.1639 9.88232 60.8099 10.545 62.0447 11.7314C62.6615 12.3108 63.1493 13.0135 63.4763 13.7939C63.8034 14.5743 63.9624 15.4149 63.9429 16.2608C63.9617 17.1052 63.804 17.9442 63.48 18.7241C63.1559 19.504 62.6727 20.2078 62.0612 20.7903C60.8169 21.9647 59.1707 22.619 57.4597 22.619C55.7487 22.619 54.1025 21.9647 52.8582 20.7903ZM54.3735 19.382C55.1938 20.1846 56.2957 20.6339 57.4432 20.6339C58.5908 20.6339 59.6927 20.1846 60.5129 19.382C60.9176 18.9729 61.2356 18.4863 61.4479 17.9515C61.6601 17.4166 61.7623 16.8444 61.7482 16.2691C61.7623 15.6938 61.6601 15.1216 61.4479 14.5867C61.2356 14.0518 60.9176 13.5653 60.5129 13.1561C59.6979 12.3437 58.594 11.8875 57.4432 11.8875C56.2924 11.8875 55.1886 12.3437 54.3735 13.1561C53.9683 13.5648 53.6499 14.0513 53.4376 14.5863C53.2253 15.1213 53.1235 15.6937 53.1382 16.2691C53.1198 16.8446 53.2196 17.4177 53.4313 17.9531C53.6431 18.4885 53.9623 18.9748 54.3694 19.382H54.3735Z" fill="#737380"/>
<path d="M73.4465 14.758L72.1453 16.1127C71.8597 15.8012 71.5113 15.5538 71.123 15.387C70.7347 15.2202 70.3155 15.1377 69.8929 15.145C69.5308 15.1366 69.1709 15.2023 68.8352 15.3383C68.4995 15.4743 68.1953 15.6776 67.9412 15.9356C67.4432 16.4774 67.1668 17.1865 67.1668 17.9224C67.1668 18.6583 67.4432 19.3674 67.9412 19.9092C68.1945 20.1686 68.4985 20.373 68.8343 20.5098C69.1701 20.6465 69.5305 20.7126 69.8929 20.7039C70.3155 20.7112 70.7347 20.6287 71.123 20.4619C71.5113 20.2951 71.8597 20.0477 72.1453 19.7362L73.4465 21.0868C72.999 21.5823 72.4499 21.9752 71.8366 22.2389C71.2233 22.5025 70.5603 22.6307 69.8929 22.6145C69.2612 22.6318 68.6323 22.5227 68.0433 22.2936C67.4542 22.0645 66.9169 21.72 66.4629 21.2803C66.0091 20.8486 65.6508 20.3265 65.4111 19.7478C65.1714 19.1691 65.0556 18.5465 65.0712 17.9203C65.0553 17.2965 65.1711 16.6764 65.4109 16.1003C65.6507 15.5242 66.0092 15.0051 66.4629 14.5768C66.9158 14.1342 67.4524 13.7864 68.0414 13.5538C68.6304 13.3212 69.2598 13.2084 69.8929 13.2221C70.5609 13.2072 71.2242 13.3367 71.8375 13.6018C72.4508 13.8669 72.9996 14.2613 73.4465 14.758Z" fill="#737380"/>
<path d="M75.3117 15.425H74.2041V13.5062H75.3117V10.1133H77.42V13.5062H79.3759V15.425H77.42V19.3821C77.42 20.3498 77.7576 20.7039 78.5318 20.7039C78.7792 20.7067 79.0263 20.6832 79.2688 20.6339V22.5156C78.9101 22.5906 78.5441 22.6251 78.1776 22.6186C76.2588 22.6186 75.2953 21.618 75.2953 19.6127L75.3117 15.425Z" fill="#737380"/>
<path d="M79.9276 17.941C79.916 17.3162 80.0352 16.696 80.2778 16.1201C80.5203 15.5443 80.8807 15.0256 81.3359 14.5974C82.2659 13.727 83.492 13.2427 84.7659 13.2427C86.0397 13.2427 87.2658 13.727 88.1959 14.5974C88.6416 15.0328 88.9958 15.5528 89.2376 16.127C89.4794 16.7012 89.604 17.3179 89.604 17.941C89.604 18.564 89.4794 19.1808 89.2376 19.755C88.9958 20.3291 88.6416 20.8492 88.1959 21.2845C87.2658 22.155 86.0397 22.6393 84.7659 22.6393C83.492 22.6393 82.2659 22.155 81.3359 21.2845C80.8807 20.8564 80.5203 20.3377 80.2778 19.7618C80.0352 19.186 79.916 18.5657 79.9276 17.941ZM86.7176 19.9298C86.9773 19.669 87.1816 19.3584 87.3181 19.0166C87.4547 18.6748 87.5208 18.3089 87.5123 17.941C87.5221 17.5753 87.4566 17.2115 87.3199 16.8722C87.1832 16.5329 86.9782 16.2253 86.7176 15.9686C86.1963 15.4516 85.4918 15.1616 84.7576 15.1616C84.0234 15.1616 83.3189 15.4516 82.7976 15.9686C82.5437 16.2292 82.3443 16.5379 82.2114 16.8766C82.0785 17.2153 82.0146 17.5772 82.0235 17.941C82.0084 18.6802 82.2868 19.3953 82.7976 19.9298C83.324 20.437 84.0266 20.7205 84.7576 20.7205C85.4886 20.7205 86.1912 20.437 86.7176 19.9298Z" fill="#737380"/>
<path d="M93.1535 25.7685H91.0412V13.5062H93.1535V14.7909C93.4541 13.9303 94.5247 13.3126 95.9865 13.3126C96.5765 13.2989 97.1626 13.4112 97.7058 13.642C98.249 13.8727 98.7367 14.2167 99.1365 14.6509C99.5605 15.0858 99.8928 15.6015 100.114 16.1674C100.334 16.7333 100.439 17.3378 100.421 17.945C100.436 18.5518 100.33 19.1556 100.11 19.7212C99.8894 20.2867 99.5584 20.8027 99.1365 21.2391C98.7335 21.668 98.2448 22.0074 97.7021 22.2351C97.1594 22.4628 96.5749 22.5738 95.9865 22.5609C94.5247 22.5609 93.4541 21.9432 93.1535 21.0826V25.7685ZM93.7712 16.0056C93.2738 16.5271 92.9963 17.2202 92.9963 17.9409C92.9963 18.6616 93.2738 19.3546 93.7712 19.8762C94.0261 20.1273 94.3286 20.3251 94.6609 20.4581C94.9932 20.591 95.3486 20.6563 95.7065 20.6503C96.0544 20.6599 96.4004 20.5959 96.7218 20.4625C97.0433 20.3291 97.3329 20.1293 97.5718 19.8762C98.0521 19.346 98.3181 18.6562 98.3181 17.9409C98.3181 17.2255 98.0521 16.5357 97.5718 16.0056C97.3329 15.7524 97.0433 15.5526 96.7218 15.4192C96.4004 15.2858 96.0544 15.2218 95.7065 15.2315C95.3486 15.2254 94.9932 15.2908 94.6609 15.4237C94.3286 15.5566 94.0261 15.7544 93.7712 16.0056Z" fill="#737380"/>
<path d="M101.731 13.5061H103.843V18.6985C103.843 19.909 104.493 20.6667 105.638 20.6667C105.904 20.6697 106.167 20.6175 106.411 20.5134C106.656 20.4094 106.876 20.2557 107.058 20.0622C107.24 19.8687 107.38 19.6395 107.468 19.3892C107.557 19.1388 107.593 18.8728 107.574 18.6079V13.5061H109.682V19.6826C109.682 20.4402 109.859 20.7038 110.336 20.7038C110.46 20.7038 110.616 20.7038 110.773 20.6667V22.392C110.438 22.4975 110.087 22.5448 109.735 22.532C109.276 22.5508 108.822 22.4287 108.434 22.182C108.122 21.9525 107.898 21.6224 107.8 21.2473C107.289 22.112 106.392 22.5485 105.111 22.5485C102.999 22.5485 101.731 21.1937 101.731 18.9949V13.5061Z" fill="#737380"/>
<path d="M112.819 19.6662C113.088 20.0293 113.442 20.3205 113.85 20.5137C114.258 20.707 114.707 20.7963 115.158 20.7738C116.266 20.7738 116.744 20.3621 116.744 19.8062C116.733 19.6528 116.679 19.5056 116.589 19.3812C116.499 19.2568 116.375 19.1601 116.233 19.1021C115.97 18.9633 115.694 18.8516 115.409 18.7685C115.146 18.6779 114.619 18.5215 114.318 18.3979C112.894 17.8873 112.14 17.1626 112.14 15.8985C112.124 15.5281 112.197 15.1593 112.353 14.8227C112.508 14.4861 112.741 14.1915 113.034 13.9632C113.677 13.485 114.464 13.2384 115.265 13.2632C115.815 13.2315 116.364 13.3333 116.866 13.5599C117.368 13.7865 117.808 14.1311 118.148 14.5644L116.97 15.7997C116.762 15.5482 116.497 15.3498 116.197 15.221C115.897 15.0921 115.57 15.0364 115.245 15.0585C114.594 15.0585 114.174 15.3756 114.174 15.8532C114.177 15.9841 114.218 16.1113 114.291 16.22C114.364 16.3287 114.466 16.4143 114.586 16.4668C114.819 16.5884 115.059 16.6943 115.306 16.7838C115.57 16.8538 116.064 17.0309 116.414 17.1544C118.061 17.735 118.79 18.5256 118.79 19.7938C118.79 21.4409 117.555 22.6062 115.15 22.6062C113.371 22.6062 112.054 21.9185 111.489 20.8109L112.819 19.6662Z" fill="#737380"/>
<g clip-path="url(#clip0_13_1199)">
<path d="M18.4018 29.8567H16.3429V18.5291C15.7445 18.3178 15.2264 17.9262 14.8599 17.4081C14.4934 16.89 14.2966 16.271 14.2966 15.6365C14.2966 15.0019 14.4934 14.3829 14.8599 13.8648C15.2264 13.3467 15.7445 12.9551 16.3429 12.7438V9.61439C16.405 8.63832 16.2663 7.6599 15.9354 6.73952C15.6046 5.81915 15.0886 4.97635 14.4193 4.26318C13.75 3.55001 12.9416 2.98159 12.0441 2.59302C11.1466 2.20445 10.1789 2.00398 9.20088 2.00398C8.22284 2.00398 7.25518 2.20445 6.35765 2.59302C5.46011 2.98159 4.65175 3.55001 3.98246 4.26318C3.31318 4.97635 2.79718 5.81915 2.46633 6.73952C2.13547 7.6599 1.99678 8.63832 2.05882 9.61439V12.7644C2.6502 12.9798 3.161 13.3719 3.52194 13.8876C3.88287 14.4032 4.07647 15.0174 4.07647 15.6467C4.07647 16.2761 3.88287 16.8903 3.52194 17.4059C3.161 17.9215 2.6502 18.3137 2.05882 18.5291V29.8567H-2.87602e-06V16.6803H1.02117C1.29419 16.6803 1.55603 16.5718 1.74908 16.3788C1.94213 16.1857 2.05059 15.9239 2.05059 15.6509C2.05059 15.3778 1.94213 15.116 1.74908 14.923C1.55603 14.7299 1.29419 14.6215 1.02117 14.6215H-2.87602e-06V9.61439C-0.0259117 8.38974 0.192922 7.17223 0.64367 6.03325C1.09442 4.89427 1.76801 3.85673 2.62496 2.98146C3.4819 2.1062 4.50496 1.41081 5.63415 0.936072C6.76335 0.461334 7.97595 0.216797 9.20088 0.216797C10.4258 0.216797 11.6384 0.461334 12.7676 0.936072C13.8968 1.41081 14.9199 2.1062 15.7768 2.98146C16.6338 3.85673 17.3073 4.89427 17.7581 6.03325C18.2088 7.17223 18.4277 8.38974 18.4018 9.61439V14.6215H17.3806C17.1076 14.6215 16.8457 14.7299 16.6527 14.923C16.4596 15.116 16.3512 15.3778 16.3512 15.6509C16.3512 15.9239 16.4596 16.1857 16.6527 16.3788C16.8457 16.5718 17.1076 16.6803 17.3806 16.6803H18.4018V29.8567Z" fill="#737380"/>
<path d="M6.13529 32.772H4.07647V19.7644L4.41823 19.4597C4.95673 18.9808 5.38804 18.3936 5.68393 17.7366C5.97983 17.0795 6.13363 16.3673 6.13529 15.6467H8.19411C8.18909 17.5208 7.45 19.3183 6.13529 20.6538V32.772Z" fill="#737380"/>
<path d="M14.3129 32.772H12.2541V20.6538C10.9413 19.317 10.2025 17.5203 10.1953 15.6467H12.2541C12.254 16.3655 12.4054 17.0761 12.6984 17.7324C12.9915 18.3887 13.4195 18.9758 13.9547 19.4556L14.2965 19.7603L14.3129 32.772Z" fill="#737380"/>
<path d="M10.2241 20.2173H8.17764V34.1349H10.2241V20.2173Z" fill="#737380"/>
</g>
<defs>
<clipPath id="clip0_13_1199">
<rect width="18.5294" height="34.1765" fill="white"/>
</clipPath>
</defs>
</svg>
