<svg width="60" height="111" viewBox="0 0 60 111" fill="none" xmlns="http://www.w3.org/2000/svg">
<g clip-path="url(#clip0_11_274)">
<path d="M59.5867 96.6801H52.92V60.0001C50.9823 59.316 49.3045 58.0478 48.1178 56.3702C46.931 54.6926 46.2937 52.6883 46.2937 50.6334C46.2937 48.5785 46.931 46.5742 48.1178 44.8967C49.3045 43.2191 50.9823 41.9509 52.92 41.2668V31.1334C53.1209 27.9728 52.6718 24.8046 51.6005 21.8243C50.5291 18.8441 48.8583 16.115 46.6911 13.8057C44.5239 11.4964 41.9063 9.65578 39 8.39756C36.0937 7.13933 32.9603 6.49018 29.7933 6.49018C26.6264 6.49018 23.493 7.13933 20.5867 8.39756C17.6804 9.65578 15.0628 11.4964 12.8956 13.8057C10.7284 16.115 9.05755 18.8441 7.98621 21.8243C6.91487 24.8046 6.46578 27.9728 6.66667 31.1334V41.3334C8.5816 42.031 10.2356 43.3008 11.4044 44.9704C12.5731 46.64 13.2 48.6287 13.2 50.6668C13.2 52.7048 12.5731 54.6935 11.4044 56.3632C10.2356 58.0328 8.5816 59.3025 6.66667 60.0001V96.6801H-9.574e-07V54.0134H3.30667C4.19072 54.0134 5.03857 53.6622 5.66369 53.0371C6.28881 52.412 6.64 51.5642 6.64 50.6801C6.64 49.796 6.28881 48.9482 5.66369 48.3231C5.03857 47.698 4.19072 47.3468 3.30667 47.3468H-9.574e-07V31.1334C-0.0838963 27.1679 0.624709 23.2255 2.08427 19.5374C3.54384 15.8492 5.72499 12.4896 8.49987 9.65538C11.2747 6.82118 14.5875 4.56945 18.2439 3.03221C21.9004 1.49496 25.8269 0.703125 29.7933 0.703125C33.7598 0.703125 37.6863 1.49496 41.3427 3.03221C44.9992 4.56945 48.3119 6.82118 51.0868 9.65538C53.8617 12.4896 56.0428 15.8492 57.5024 19.5374C58.962 23.2255 59.6706 27.1679 59.5867 31.1334V47.3468H56.28C55.3959 47.3468 54.5481 47.698 53.923 48.3231C53.2979 48.9482 52.9467 49.796 52.9467 50.6801C52.9467 51.5642 53.2979 52.412 53.923 53.0371C54.5481 53.6622 55.3959 54.0134 56.28 54.0134H59.5867V96.6801Z" fill="white"/>
<path d="M19.8667 106.12H13.2V64.0002L14.3067 63.0135C16.0504 61.4629 17.447 59.5616 18.4051 57.4339C19.3633 55.3063 19.8613 53.0003 19.8667 50.6669H26.5333C26.5171 56.7352 24.1238 62.5556 19.8667 66.8802V106.12Z" fill="white"/>
<path d="M46.3467 106.12H39.68V66.8802C35.4289 62.5517 33.0367 56.7338 33.0133 50.6669H39.68C39.6797 52.9942 40.1699 55.2954 41.1188 57.4205C42.0676 59.5456 43.4537 61.4468 45.1867 63.0002L46.2933 63.9869L46.3467 106.12Z" fill="white"/>
<path d="M33.1067 65.4668H26.48V110.533H33.1067V65.4668Z" fill="white"/>
</g>
<defs>
<clipPath id="clip0_11_274">
<rect width="60" height="110.667" fill="white"/>
</clipPath>
</defs>
</svg>
