<svg width="158" height="46" viewBox="0 0 158 46" fill="none" xmlns="http://www.w3.org/2000/svg">
<path d="M37.1765 30.2416V13.9605H47.0173V16.6011H40.1123V20.6851H46.4268V23.3257H40.1123V30.2416H37.1765Z" fill="white"/>
<path d="M48.6028 15.4093C48.5963 15.0776 48.6886 14.7514 48.8679 14.4722C49.0473 14.1931 49.3056 13.9736 49.61 13.8416C49.9144 13.7096 50.2512 13.6712 50.5775 13.7311C50.9039 13.791 51.205 13.9466 51.4427 14.1781C51.6804 14.4096 51.8439 14.7066 51.9123 15.0312C51.9808 15.3559 51.9512 15.6936 51.8273 16.0013C51.7034 16.3091 51.4907 16.5731 51.2164 16.7597C50.9421 16.9464 50.6185 17.0472 50.2867 17.0494C50.0676 17.0553 49.8497 17.0172 49.6456 16.9374C49.4415 16.8576 49.2555 16.7377 49.0985 16.5848C48.9416 16.4319 48.8168 16.2491 48.7317 16.0472C48.6466 15.8453 48.6027 15.6284 48.6028 15.4093ZM48.8871 18.4435H51.6863V26.7372C51.6863 27.6447 51.8721 27.9727 52.5063 27.9727C52.6695 27.9735 52.8324 27.9589 52.9929 27.929V30.2853C52.5419 30.4336 52.0673 30.4966 51.5933 30.4712C49.7946 30.4712 48.8598 29.4707 48.8598 27.4862L48.8871 18.4435Z" fill="white"/>
<path d="M54.6658 30.2416V18.4654H57.4486V20.1493C57.9953 19.0067 59.3129 18.2358 60.9749 18.2358C63.7522 18.2358 65.3486 20.0345 65.3486 22.9539V26.6661C65.3486 27.5791 65.5126 27.9017 66.1413 27.9017C66.2754 27.8991 66.409 27.8845 66.5404 27.858V30.2143C66.1443 30.3173 65.7359 30.3651 65.3267 30.3564C63.4788 30.3564 62.5932 29.3286 62.5932 27.273V23.3476C62.5932 21.7074 61.6802 20.7343 60.1166 20.7343C59.7576 20.7222 59.4 20.7852 59.0668 20.9193C58.7336 21.0534 58.432 21.2555 58.1814 21.5128C57.9307 21.7701 57.7366 22.0769 57.6114 22.4136C57.4861 22.7502 57.4326 23.1093 57.4541 23.4679V30.2416H54.6658Z" fill="white"/>
<path d="M70.1816 28.1368C69.3696 27.3634 68.728 26.429 68.2978 25.3935C67.8676 24.3579 67.6582 23.244 67.6831 22.1229C67.6582 21.0018 67.8676 19.8879 68.2978 18.8524C68.728 17.8168 69.3696 16.8825 70.1816 16.1091C71.821 14.5338 74.0065 13.654 76.2801 13.654C78.5538 13.654 80.7392 14.5338 82.3787 16.1091C83.1976 16.8783 83.8453 17.8113 84.2795 18.8475C84.7138 19.8837 84.9249 20.9997 84.8991 22.1229C84.9239 23.244 84.7146 24.3579 84.2844 25.3935C83.8541 26.429 83.2125 27.3634 82.4006 28.1368C80.7486 29.6961 78.5628 30.5648 76.2911 30.5648C74.0193 30.5648 71.8336 29.6961 70.1816 28.1368ZM72.1935 26.267C73.2825 27.3325 74.7456 27.9292 76.2692 27.9292C77.7928 27.9292 79.2559 27.3325 80.3449 26.267C80.8822 25.7238 81.3044 25.0778 81.5863 24.3676C81.8681 23.6574 82.0037 22.8977 81.9851 22.1339C82.0037 21.37 81.8681 20.6103 81.5863 19.9001C81.3044 19.1899 80.8822 18.5439 80.3449 18.0007C79.2628 16.922 77.7971 16.3163 76.2692 16.3163C74.7413 16.3163 73.2756 16.922 72.1935 18.0007C71.6554 18.5434 71.2327 19.1893 70.9508 19.8996C70.6689 20.6099 70.5337 21.3699 70.5533 22.1339C70.5289 22.8979 70.6613 23.6589 70.9424 24.3698C71.2236 25.0807 71.6475 25.7264 72.188 26.267H72.1935Z" fill="white"/>
<path d="M97.5171 20.1274L95.7895 21.9261C95.4104 21.5125 94.9477 21.1841 94.4322 20.9626C93.9167 20.7411 93.36 20.6316 92.799 20.6413C92.3182 20.6301 91.8403 20.7174 91.3946 20.8979C90.9489 21.0785 90.5449 21.3484 90.2076 21.691C89.5464 22.4104 89.1794 23.3518 89.1794 24.3289C89.1794 25.306 89.5464 26.2475 90.2076 26.9668C90.5439 27.3113 90.9475 27.5827 91.3934 27.7642C91.8393 27.9458 92.3177 28.0335 92.799 28.022C93.36 28.0317 93.9167 27.9222 94.4322 27.7007C94.9477 27.4792 95.4104 27.1508 95.7895 26.7372L97.5171 28.5304C96.9231 29.1882 96.194 29.71 95.3797 30.0601C94.5654 30.4101 93.6851 30.5802 92.799 30.5587C91.9602 30.5817 91.1252 30.4369 90.3431 30.1327C89.5611 29.8285 88.8477 29.3711 88.2449 28.7874C87.6423 28.2141 87.1666 27.5209 86.8483 26.7525C86.5301 25.9842 86.3763 25.1576 86.397 24.3262C86.376 23.498 86.5297 22.6746 86.8481 21.9097C87.1664 21.1448 87.6424 20.4556 88.2449 19.8869C88.8462 19.2992 89.5587 18.8374 90.3407 18.5286C91.1226 18.2197 91.9584 18.07 92.799 18.0882C93.6859 18.0684 94.5666 18.2404 95.3808 18.5923C96.1951 18.9443 96.9238 19.4679 97.5171 20.1274Z" fill="white"/>
<path d="M99.9938 21.0131H98.5231V18.4654H99.9938V13.9605H102.793V18.4654H105.39V21.0131H102.793V26.267C102.793 27.5518 103.241 28.022 104.269 28.022C104.598 28.0257 104.926 27.9945 105.248 27.929V30.4275C104.771 30.527 104.285 30.5729 103.799 30.5642C101.251 30.5642 99.9719 29.2357 99.9719 26.5732L99.9938 21.0131Z" fill="white"/>
<path d="M106.122 24.3535C106.107 23.524 106.265 22.7005 106.587 21.9359C106.909 21.1714 107.388 20.4827 107.992 19.9142C109.227 18.7585 110.855 18.1154 112.546 18.1154C114.238 18.1154 115.866 18.7585 117.1 19.9142C117.692 20.4922 118.162 21.1827 118.484 21.945C118.805 22.7074 118.97 23.5263 118.97 24.3535C118.97 25.1808 118.805 25.9996 118.484 26.762C118.162 27.5244 117.692 28.2149 117.1 28.7928C115.866 29.9486 114.238 30.5916 112.546 30.5916C110.855 30.5916 109.227 29.9486 107.992 28.7928C107.388 28.2244 106.909 27.5357 106.587 26.7711C106.265 26.0065 106.107 25.183 106.122 24.3535ZM115.138 26.9941C115.482 26.6479 115.754 26.2354 115.935 25.7816C116.116 25.3278 116.204 24.8421 116.193 24.3535C116.206 23.868 116.119 23.385 115.937 22.9345C115.756 22.484 115.484 22.0756 115.138 21.7348C114.445 21.0484 113.51 20.6632 112.535 20.6632C111.56 20.6632 110.625 21.0484 109.933 21.7348C109.596 22.0808 109.331 22.4906 109.155 22.9404C108.978 23.3901 108.893 23.8706 108.905 24.3535C108.885 25.335 109.255 26.2845 109.933 26.9941C110.632 27.6676 111.565 28.0439 112.535 28.0439C113.506 28.0439 114.439 27.6676 115.138 26.9941Z" fill="white"/>
<path d="M123.683 34.7465H120.878V18.4654H123.683V20.1712C124.082 19.0285 125.503 18.2085 127.444 18.2085C128.228 18.1903 129.006 18.3393 129.727 18.6457C130.448 18.9521 131.096 19.4088 131.627 19.9853C132.19 20.5627 132.631 21.2474 132.924 21.9988C133.217 22.7502 133.356 23.5528 133.332 24.359C133.352 25.1647 133.212 25.9664 132.919 26.7173C132.626 27.4682 132.187 28.1533 131.627 28.7327C131.091 29.3022 130.443 29.7527 129.722 30.0551C129.002 30.3574 128.225 30.5048 127.444 30.4876C125.503 30.4876 124.082 29.6676 123.683 28.5249V34.7465ZM124.503 21.784C123.842 22.4764 123.474 23.3966 123.474 24.3535C123.474 25.3104 123.842 26.2306 124.503 26.9231C124.841 27.2565 125.243 27.5192 125.684 27.6957C126.125 27.8721 126.597 27.9589 127.072 27.9509C127.534 27.9637 127.994 27.8787 128.421 27.7016C128.847 27.5245 129.232 27.2592 129.549 26.9231C130.187 26.2192 130.54 25.3033 130.54 24.3535C130.54 23.4037 130.187 22.4878 129.549 21.784C129.232 21.4479 128.847 21.1826 128.421 21.0054C127.994 20.8283 127.534 20.7434 127.072 20.7561C126.597 20.7481 126.125 20.8349 125.684 21.0114C125.243 21.1878 124.841 21.4505 124.503 21.784Z" fill="white"/>
<path d="M135.071 18.4654H137.875V25.3595C137.875 26.9668 138.739 27.9728 140.259 27.9728C140.612 27.9767 140.961 27.9074 141.286 27.7693C141.61 27.6311 141.903 27.4271 142.144 27.1702C142.386 26.9132 142.571 26.6089 142.689 26.2765C142.807 25.9441 142.854 25.5909 142.829 25.2392V18.4654H145.628V26.6661C145.628 27.6721 145.863 28.022 146.497 28.022C146.661 28.022 146.869 28.022 147.077 27.9728V30.2635C146.631 30.4035 146.165 30.4664 145.699 30.4494C145.089 30.4744 144.486 30.3122 143.971 29.9847C143.557 29.6799 143.259 29.2417 143.129 28.7436C142.451 29.8917 141.26 30.4712 139.559 30.4712C136.755 30.4712 135.071 28.6726 135.071 25.7531V18.4654Z" fill="white"/>
<path d="M149.794 26.6442C150.15 27.1264 150.62 27.513 151.162 27.7696C151.704 28.0262 152.3 28.1448 152.899 28.1149C154.37 28.1149 155.004 27.5682 155.004 26.8301C154.99 26.6266 154.918 26.4311 154.799 26.2659C154.679 26.1007 154.515 25.9723 154.326 25.8952C153.978 25.711 153.611 25.5627 153.233 25.4524C152.883 25.3321 152.183 25.1244 151.784 24.9604C149.892 24.2824 148.892 23.3202 148.892 21.6418C148.871 21.15 148.968 20.6604 149.174 20.2135C149.38 19.7666 149.69 19.3753 150.078 19.0723C150.933 18.4374 151.977 18.1098 153.041 18.1429C153.771 18.1008 154.501 18.2359 155.167 18.5368C155.833 18.8376 156.417 19.2952 156.868 19.8705L155.305 21.5106C155.028 21.1767 154.676 20.9133 154.278 20.7422C153.88 20.5711 153.446 20.4972 153.014 20.5265C152.15 20.5265 151.593 20.9475 151.593 21.5817C151.597 21.7554 151.65 21.9244 151.747 22.0687C151.844 22.213 151.98 22.3266 152.139 22.3963C152.448 22.5577 152.768 22.6984 153.096 22.8173C153.446 22.9102 154.102 23.1453 154.567 23.3093C156.753 24.0802 157.721 25.1298 157.721 26.8137C157.721 29.0006 156.081 30.5478 152.888 30.5478C150.526 30.5478 148.777 29.6348 148.028 28.1641L149.794 26.6442Z" fill="white"/>
<g clip-path="url(#clip0_1_210)">
<path d="M24.4326 40.175H21.699V25.1349C20.9045 24.8544 20.2166 24.3344 19.7299 23.6466C19.2433 22.9587 18.982 22.1369 18.982 21.2943C18.982 20.4517 19.2433 19.6299 19.7299 18.942C20.2166 18.2542 20.9045 17.7341 21.699 17.4536V13.2986C21.7814 12.0027 21.5972 10.7036 21.158 9.48156C20.7187 8.25955 20.0336 7.14055 19.1449 6.19365C18.2563 5.24674 17.183 4.49204 15.9913 3.97612C14.7996 3.4602 13.5149 3.19403 12.2163 3.19403C10.9177 3.19403 9.63292 3.4602 8.44124 3.97612C7.24955 4.49204 6.17626 5.24674 5.28763 6.19365C4.399 7.14055 3.7139 8.25955 3.27461 9.48156C2.83532 10.7036 2.65118 12.0027 2.73355 13.2986V17.481C3.51874 17.767 4.19695 18.2876 4.67617 18.9722C5.1554 19.6568 5.41244 20.4723 5.41244 21.308C5.41244 22.1436 5.1554 22.9591 4.67617 23.6437C4.19695 24.3283 3.51874 24.8489 2.73355 25.1349V40.175H-1.28266e-05V22.6802H1.35583C1.71833 22.6802 2.06597 22.5362 2.3223 22.2799C2.57862 22.0236 2.72262 21.6759 2.72262 21.3134C2.72262 20.9509 2.57862 20.6033 2.3223 20.347C2.06597 20.0906 1.71833 19.9466 1.35583 19.9466H-1.28266e-05V13.2986C-0.0344128 11.6726 0.25614 10.0561 0.854612 8.54382C1.45308 7.03156 2.34743 5.65399 3.48523 4.49187C4.62302 3.32975 5.98137 2.40647 7.48063 1.77614C8.9799 1.14582 10.5899 0.821136 12.2163 0.821136C13.8427 0.821136 15.4527 1.14582 16.9519 1.77614C18.4512 2.40647 19.8095 3.32975 20.9473 4.49187C22.0851 5.65399 22.9795 7.03156 23.578 8.54382C24.1764 10.0561 24.467 11.6726 24.4326 13.2986V19.9466H23.0767C22.7142 19.9466 22.3666 20.0906 22.1103 20.347C21.854 20.6033 21.71 20.9509 21.71 21.3134C21.71 21.6759 21.854 22.0236 22.1103 22.2799C22.3666 22.5362 22.7142 22.6802 23.0767 22.6802H24.4326V40.175Z" fill="white"/>
<path d="M8.14604 44.0458H5.41248V26.7751L5.86625 26.3705C6.58123 25.7347 7.15389 24.9551 7.54676 24.0827C7.93962 23.2103 8.14384 22.2648 8.14604 21.308H10.8796C10.8729 23.7962 9.89161 26.1828 8.14604 27.956V44.0458Z" fill="white"/>
<path d="M19.0037 44.0458H16.2702V27.956C14.5271 26.1812 13.5462 23.7956 13.5366 21.308H16.2702C16.2701 22.2623 16.4711 23.2058 16.8601 24.0772C17.2492 24.9486 17.8175 25.7281 18.5281 26.3651L18.9819 26.7696L19.0037 44.0458Z" fill="white"/>
<path d="M13.5749 27.3765H10.8577V45.8554H13.5749V27.3765Z" fill="white"/>
</g>
<defs>
<clipPath id="clip0_1_210">
<rect width="24.6021" height="45.3772" fill="white" transform="translate(0 0.532867)"/>
</clipPath>
</defs>
</svg>
