<svg width="75" height="70" viewBox="0 0 75 70" fill="none" xmlns="http://www.w3.org/2000/svg">
<path d="M10.6627 34.6755C10.6627 25.8756 15.5993 23.8015 23.9155 23.8015H37.7647C48.2278 23.8015 49.6922 27.5786 49.6922 33.4363V34.3905H40.6339C40.6339 31.402 38.9309 31.0243 35.9954 31.0243H25.9763C21.3378 31.0243 20.1252 32.1442 20.1252 37.2929V41.0302C20.1252 46.1789 21.3312 47.2988 25.9763 47.2988H35.8165C38.2219 47.2988 40.6339 46.9277 40.6339 44.0187V43.144H22.8288V36.9152H49.8446V45.4633C49.8446 54.0975 45.3652 54.5083 34.9816 54.5083H23.9022C15.5993 54.5083 10.6494 52.4342 10.6494 43.6344L10.6627 34.6755Z" fill="#EB1C2D"/>
<path d="M39.0568 14.6172H74.1767V22.0918H61.2221V44.668H52.0048V22.0918H39.0568V14.6172Z" fill="#EB1C2D"/>
<path d="M53.2702 47.4179H51.9185V54.1702H53.2702V47.4179Z" fill="#231F20"/>
<path d="M61.3745 52.5666L56.0137 47.4179H54.3969V54.1768H55.7486V49.0281L61.116 54.1768H62.7329V47.4179H61.3745V52.5666Z" fill="#231F20"/>
<path d="M70.4062 52.2154C70.4062 52.8316 70.3068 53.0503 69.1935 53.0503H66.2315C65.3568 53.0503 65.0189 52.7521 65.0189 51.9768V49.6244C65.0189 48.8491 65.3568 48.5509 66.2315 48.5509H69.167C70.0019 48.5509 70.3465 48.6305 70.3465 49.4124V49.9491H71.5989V49.1606C71.5989 48.3389 71.2146 47.3516 69.3857 47.3516H66.1255C64.3894 47.3516 63.6472 48.1269 63.6472 49.9425V51.6521C63.6472 53.4677 64.3894 54.243 66.1255 54.243H69.3194C71.3073 54.243 71.6851 53.4479 71.6851 52.2551V51.5925H70.3598L70.4062 52.2154Z" fill="#231F20"/>
<path d="M74.2229 52.5998H72.7518V54.1769H74.2229V52.5998Z" fill="#231F20"/>
<path d="M25.6381 0.33075H0.524048V30.3882H9.74139V7.80534H23.2725C26.0556 7.80534 27.0496 8.96496 27.0496 10.9993V12.1655C27.0496 13.948 26.2213 15.3595 24.0611 15.3595H12.4516V22.834H28.0237C34.544 22.834 36.4922 17.6853 36.4922 13.2059V10.6282C36.5121 4.73069 34.3983 0.33075 25.6381 0.33075Z" fill="#EB1C2D"/>
<path d="M72.2284 40.4006C72.6507 40.3993 73.0639 40.5233 73.4156 40.757C73.7674 40.9906 74.0419 41.3234 74.2044 41.7132C74.3669 42.1029 74.4101 42.5321 74.3285 42.9465C74.247 43.3608 74.0443 43.7416 73.7461 44.0407C73.448 44.3398 73.0678 44.5436 72.6537 44.6265C72.2397 44.7094 71.8103 44.6675 71.42 44.5062C71.0298 44.3449 70.6961 44.0714 70.4614 43.7204C70.2266 43.3694 70.1013 42.9566 70.1013 42.5343C70.1013 41.9695 70.3252 41.4278 70.7239 41.0279C71.1226 40.6279 71.6637 40.4023 72.2284 40.4006ZM72.2284 44.2638C72.5705 44.2638 72.9048 44.1623 73.1893 43.9723C73.4737 43.7823 73.6953 43.5122 73.8262 43.1961C73.9571 42.8801 73.9914 42.5324 73.9247 42.1969C73.8579 41.8614 73.6932 41.5532 73.4513 41.3114C73.2095 41.0695 72.9013 40.9048 72.5658 40.838C72.2303 40.7713 71.8826 40.8055 71.5665 40.9364C71.2505 41.0673 70.9804 41.289 70.7904 41.5734C70.6003 41.8578 70.4989 42.1922 70.4989 42.5343C70.4989 42.993 70.6811 43.4329 71.0055 43.7572C71.3298 44.0816 71.7697 44.2638 72.2284 44.2638ZM71.4266 41.3217H72.3212C72.9175 41.3217 73.229 41.5204 73.229 42.0307C73.229 42.5409 72.9573 42.6403 72.5663 42.6933L73.229 43.7469H72.7519L72.1489 42.7066H71.7977V43.7469H71.4266V41.3217ZM72.3145 42.362C72.5995 42.362 72.8248 42.3222 72.8248 41.9909C72.8248 41.6596 72.5531 41.653 72.3212 41.653H71.8308V42.362H72.3145Z" fill="#231F20"/>
<path d="M74.2629 56.5889H0.557373V57.8943H74.2629V56.5889Z" fill="#231F20"/>
<path d="M74.2629 68.5229H0.557373V69.8284H74.2629V68.5229Z" fill="#231F20"/>
<path d="M0.722656 60.684H4.42019V67.1978H5.85813V60.684H9.55566V59.4316H0.722656V60.684Z" fill="#231F20"/>
<path d="M27.8315 65.1104C27.8315 65.6538 27.7387 66.0116 26.4664 66.0116H23.0538C21.7882 66.0116 21.6888 65.6538 21.6888 65.1104V59.4316H20.231V65.1104C20.231 66.8929 21.3111 67.2507 23.0604 67.2507H26.4333C28.1827 67.2507 29.2628 66.8929 29.2628 65.1104V59.4117H27.8315V65.1104Z" fill="#231F20"/>
<path d="M38.467 64.9714C38.467 65.7732 38.2616 66.025 36.9694 66.025H33.5038C32.4436 66.025 32.0063 65.6407 32.0063 64.6997V61.9432C32.0063 60.9956 32.437 60.6179 33.5038 60.6179H36.9694C37.9568 60.6179 38.4272 60.7239 38.4272 61.698V62.2546H39.7525V61.3932C39.7525 60.4588 39.3152 59.3522 37.2345 59.3522H33.4044C31.4165 59.3522 30.575 60.2402 30.575 62.3142V64.3022C30.575 66.3762 31.4231 67.2642 33.4044 67.2642H37.1417C39.3881 67.2642 39.8387 66.3961 39.8387 64.9979V64.2955H38.467V64.9714Z" fill="#231F20"/>
<path d="M52.442 59.4317H51.004V67.1979H52.442V59.4317Z" fill="#231F20"/>
<path d="M62.0835 65.5611L55.6956 59.4317H53.9065V67.1979H55.3444V61.0684L61.7323 67.1979H63.5214V59.4317H62.0835V65.5611Z" fill="#231F20"/>
<path d="M69.1934 63.1224V64.3748H72.9439V64.8916C72.9439 65.6934 72.5464 66.0247 71.5723 66.0247H67.7025C66.6422 66.0247 66.2049 65.6404 66.2049 64.6995V61.9429C66.2049 60.9953 66.6356 60.6176 67.7025 60.6176H70.2735C72.8114 60.6176 72.9241 60.7567 72.9241 61.8634V62.0887H74.3024V61.6049C74.3024 60.1206 73.315 59.3718 71.3602 59.3718H67.6229C65.635 59.3718 64.7935 60.2598 64.7935 62.3338V64.3218C64.7935 66.3958 65.6416 67.2838 67.6229 67.2838H71.7048C73.6463 67.2838 74.4018 66.4621 74.4018 64.3615V63.1224H69.1934Z" fill="#231F20"/>
<path d="M42.4296 59.4316H40.9983V67.1978H42.4296V59.4316Z" fill="#231F20"/>
<path d="M49.8048 59.8624L50.0103 59.6901L49.7518 59.4317H47.9759L43.3971 62.5329V63.8515L48.3271 67.1979H50.1362L50.2488 67.178L50.5072 66.9129L44.8417 63.1756L49.8048 59.8624Z" fill="#231F20"/>
<path d="M16.2684 59.4317H10.192V67.1979H11.6299V65.4087V61.9762V60.6841H15.9172C17.4347 60.6841 17.5009 60.9757 17.5009 61.5455V62.2082C17.5009 62.7383 17.2823 63.0431 16.1757 63.0431H12.5643V64.2955H16.2419C17.0967 64.2955 17.4744 64.3949 17.4744 65.3557V67.1846H18.8527V65.1105C18.8728 64.8458 18.8175 64.5809 18.6932 64.3463C18.5689 64.1118 18.3807 63.9172 18.1503 63.7853C18.4172 63.6614 18.6378 63.4561 18.7807 63.1989C18.9236 62.9418 18.9813 62.6459 18.9455 62.3539V61.7576C18.9389 60.2401 18.5148 59.4317 16.2684 59.4317Z" fill="#231F20"/>
<path d="M40.1634 5.18782H40.7996V0.807766H42.1248V0.171631H38.8381V0.807766H40.1634V5.18782Z" fill="black"/>
<path d="M42.9329 2.9481C42.9329 2.35835 43.1715 2.10654 43.7347 2.10654C44.2979 2.10654 44.3046 2.38485 44.3046 2.76918V5.18782H44.9208V2.69629C44.9208 1.8945 44.5961 1.55655 43.8341 1.55655C43.6724 1.53749 43.5085 1.55765 43.3563 1.61532C43.204 1.67299 43.0679 1.76647 42.9594 1.88787V0.171631H42.363V5.18782H42.9329V2.9481Z" fill="black"/>
<path d="M46.7501 1.54987C45.6103 1.54987 45.4248 2.03359 45.4248 3.39863C45.4248 4.76368 45.5375 5.2474 46.7501 5.2474C47.8434 5.2474 48.029 4.92934 48.029 4.22031V4.00826H47.4326V4.09441C47.4326 4.69741 47.3465 4.69741 46.6772 4.69741C46.1537 4.69741 46.0146 4.545 46.0146 3.82273V3.58417H48.0025V2.9878C48.0224 2.01371 47.8368 1.54987 46.7501 1.54987ZM46.0411 2.9878C46.0411 2.32516 46.0941 2.10648 46.7037 2.10648C47.3133 2.10648 47.3663 2.30528 47.3663 2.9878H46.0411Z" fill="black"/>
<path d="M51.1232 3.2993H52.3491C53.184 3.2993 53.6744 3.03424 53.6744 1.73546C53.6942 0.920415 53.5352 0.171631 52.6075 0.171631H50.4871V5.18782H51.1497L51.1232 3.2993ZM51.1232 0.807766H52.4485C52.8858 0.807766 53.0382 0.854151 53.0382 1.73546C53.0382 2.61678 52.8726 2.66316 52.3756 2.66316H51.1232V0.807766Z" fill="black"/>
<path d="M55.3511 1.54987C55.2167 1.53588 55.0809 1.55447 54.9552 1.60406C54.8294 1.65366 54.7175 1.73281 54.6288 1.83481V1.60288H54.0325V5.18777H54.6288V2.72937C54.6213 2.64116 54.6314 2.55232 54.6587 2.4681C54.686 2.38388 54.73 2.30598 54.7879 2.23902C54.8439 2.19036 54.9092 2.15354 54.9798 2.13076C55.0504 2.10799 55.1248 2.09973 55.1987 2.10649C55.3277 2.08848 55.4585 2.12179 55.5632 2.19926C55.6559 2.29203 55.6758 2.5107 55.6692 2.8619V2.94805H56.2258V2.55046C56.2258 1.85469 55.9608 1.54987 55.3511 1.54987Z" fill="black"/>
<path d="M57.796 1.54987C56.5701 1.54987 56.4707 2.05347 56.4707 3.39863C56.4707 4.84982 56.6364 5.2474 57.796 5.2474C58.9556 5.2474 59.1213 4.85645 59.1213 3.39863C59.1411 2.0601 59.0219 1.54987 57.796 1.54987ZM57.796 2.10648C58.3791 2.10648 58.505 2.10648 58.505 3.39863C58.505 4.69078 58.3857 4.69078 57.796 4.69078C57.2062 4.69078 57.087 4.69078 57.087 3.39863C57.087 2.10648 57.2129 2.10648 57.796 2.10648Z" fill="black"/>
<path d="M60.7118 5.24755C60.8734 5.26606 61.0371 5.24564 61.1893 5.18801C61.3415 5.13037 61.4776 5.03719 61.5865 4.91623V5.19454H62.1828V1.60303H61.5865V3.84938C61.5865 4.43913 61.3479 4.69094 60.7847 4.69094C60.2214 4.69094 60.2148 4.41263 60.2148 4.02829V1.60303H59.6184V4.10118C59.625 4.90298 59.9497 5.24755 60.7118 5.24755Z" fill="black"/>
<path d="M63.9655 5.24746C64.1184 5.26903 64.2742 5.25316 64.4197 5.20122C64.5651 5.14929 64.6957 5.06283 64.8004 4.94927V5.19445H65.3968V0.171631H64.8004V1.88124C64.6884 1.7648 64.5516 1.67512 64.4002 1.6189C64.2487 1.56268 64.0865 1.54137 63.9257 1.55655C62.998 1.55655 62.6998 2.00715 62.6998 3.40532C62.6998 4.80349 62.9715 5.24746 63.9655 5.24746ZM63.3028 3.39869C63.3028 2.19931 63.4751 2.15955 64.0384 2.15955C64.6016 2.15955 64.8004 2.39148 64.8004 3.1999C64.8004 4.52518 64.6679 4.65108 64.0649 4.65108C63.4619 4.65108 63.3028 4.59807 63.3028 3.39869Z" fill="black"/>
<path d="M41.3165 7.46069H39.196V12.4769H39.8587V10.5884H41.0846C41.9195 10.5884 42.4099 10.3233 42.4099 9.02453C42.4099 8.20948 42.2707 7.46069 41.3165 7.46069ZM41.1111 9.95222H39.8322V8.12333H41.1575C41.5948 8.12333 41.7472 8.16972 41.7472 9.05103C41.7472 9.93234 41.6081 9.95222 41.1111 9.95222Z" fill="black"/>
<path d="M44.0596 8.83894C43.9252 8.82494 43.7894 8.84353 43.6637 8.89313C43.5379 8.94272 43.426 9.02187 43.3373 9.12387V8.89195H42.741V12.4768H43.3373V10.0184C43.3297 9.93022 43.3399 9.84138 43.3672 9.75716C43.3945 9.67294 43.4385 9.59505 43.4964 9.52808C43.6076 9.45239 43.7375 9.40866 43.8718 9.40165C44.0062 9.39464 44.1399 9.42462 44.2584 9.48832C44.3512 9.58109 44.3711 9.79977 44.3644 10.151V10.2371H44.9211V9.87928C44.9211 9.14375 44.6759 8.83894 44.0596 8.83894Z" fill="black"/>
<path d="M46.5046 8.83893C45.2787 8.83893 45.1793 9.34254 45.1793 10.6877C45.1793 12.1389 45.345 12.5365 46.5046 12.5365C47.6642 12.5365 47.8299 12.1455 47.8299 10.6877C47.8498 9.34916 47.7371 8.83893 46.5046 8.83893ZM46.5046 9.39555C47.0877 9.39555 47.2136 9.39555 47.2136 10.6877C47.2136 11.9798 47.0944 11.9798 46.5046 11.9798C45.9149 11.9798 45.7956 11.9798 45.7956 10.6877C45.7956 9.39555 45.9215 9.39555 46.5046 9.39555Z" fill="black"/>
<path d="M49.838 7.42097H49.5465C48.8838 7.42097 48.5724 7.72578 48.5724 8.37517V8.91191H48.1483V9.44865H48.5724V12.4769H49.1688V9.44865H49.9176V8.89203H49.1622V8.35529C49.1622 8.02397 49.3146 7.95771 49.5597 7.95771H49.9242V7.48723V7.40771L49.838 7.42097Z" fill="black"/>
<path d="M51.3553 8.83893C50.2156 8.83893 50.03 9.32266 50.03 10.6877C50.03 12.0527 50.1427 12.5365 51.3553 12.5365C52.4487 12.5365 52.6342 12.2184 52.6342 11.5094V11.2973H52.0378V11.3835C52.0378 11.9865 51.9517 11.9865 51.2824 11.9865C50.7589 11.9865 50.6198 11.8341 50.6198 11.1118V10.8799H52.6077V10.2835C52.6276 9.30278 52.442 8.83893 51.3553 8.83893ZM50.6463 10.2702C50.6463 9.60759 50.6993 9.38892 51.3089 9.38892C51.9186 9.38892 51.9716 9.58771 51.9716 10.2702H50.6463Z" fill="black"/>
<path d="M54.4961 10.3828C53.7871 10.3431 53.7871 10.3166 53.7871 9.90575C53.7871 9.49491 53.8401 9.39551 54.4099 9.39551C54.9798 9.39551 55.1123 9.42864 55.1123 9.86599V9.95213H55.7087V9.87261C55.7087 9.06419 55.437 8.84552 54.4298 8.84552C53.4226 8.84552 53.1907 9.16359 53.1907 9.92563C53.1907 10.6877 53.4823 10.8931 54.3636 10.9395C55.2449 10.9859 55.1455 10.9991 55.1455 11.3834C55.1455 11.887 55.0925 11.9798 54.4099 11.9798C54.0985 11.9798 53.9395 11.9467 53.86 11.8672C53.7804 11.7876 53.7539 11.6419 53.7606 11.3437V11.2575H53.1642V11.3437C53.1642 12.4569 53.628 12.5364 54.3901 12.5364C55.5298 12.5364 55.7154 12.2316 55.7154 11.3636C55.7154 10.4955 55.5232 10.4425 54.4961 10.3828Z" fill="black"/>
<path d="M57.6042 10.3828C56.8952 10.343 56.8952 10.3165 56.8952 9.90568C56.8952 9.49485 56.9482 9.39545 57.5181 9.39545C58.088 9.39545 58.2205 9.42858 58.2205 9.86593V9.95207H58.8367V9.87255C58.8367 9.06413 58.5651 8.84546 57.5578 8.84546C56.5506 8.84546 56.3187 9.16353 56.3187 9.92556C56.3187 10.6876 56.6103 10.893 57.4916 10.9394C58.3729 10.9858 58.2735 10.999 58.2735 11.3834C58.2735 11.887 58.2205 11.9798 57.538 11.9798C57.2265 11.9798 57.0675 11.9466 56.988 11.8671C56.9085 11.7876 56.8488 11.6352 56.8488 11.337V11.2508H56.2524V11.337C56.2524 12.4502 56.7163 12.5297 57.4783 12.5297C58.6181 12.5297 58.8036 12.2249 58.8036 11.3569C58.8036 10.4888 58.6247 10.4424 57.6042 10.3828Z" fill="black"/>
<path d="M60.0956 7.46069H59.4993V8.19622H60.0956V7.46069Z" fill="black"/>
<path d="M60.0956 8.89203H59.4993V12.4769H60.0956V8.89203Z" fill="black"/>
<path d="M62.0304 8.83893C60.8045 8.83893 60.7051 9.34254 60.7051 10.6877C60.7051 12.1389 60.8707 12.5365 62.0304 12.5365C63.19 12.5365 63.3556 12.1455 63.3556 10.6877C63.3755 9.34916 63.2629 8.83893 62.0304 8.83893ZM62.0304 9.39555C62.6135 9.39555 62.7394 9.39555 62.7394 10.6877C62.7394 11.9798 62.6201 11.9798 62.0304 11.9798C61.4406 11.9798 61.3213 11.9798 61.3213 10.6877C61.3213 9.39555 61.4472 9.39555 62.0304 9.39555Z" fill="black"/>
<path d="M65.3304 8.839C65.1688 8.81994 65.0049 8.8401 64.8526 8.89777C64.7004 8.95544 64.5642 9.04893 64.4558 9.17033V8.89202H63.8594V12.4769H64.4558V10.2372C64.4558 9.64743 64.6943 9.39562 65.2575 9.39562C65.8208 9.39562 65.8274 9.67393 65.8274 10.0583V12.457H66.4238V9.98537C66.4172 9.18358 66.1256 8.839 65.3304 8.839Z" fill="black"/>
<path d="M68.2724 8.83893C67.1725 8.83893 67.0201 9.26964 67.0201 9.74012V10.0052H67.6164V9.92566C67.6164 9.5082 67.6164 9.39555 68.2791 9.39555C68.9417 9.39555 68.9417 9.54795 68.9417 9.99192V10.4028C68.7827 10.2636 68.5508 10.2238 68.067 10.2238C67.1128 10.2238 66.9207 10.6678 66.9207 11.3768C66.9207 11.9798 67.0598 12.5298 68.067 12.5298C68.3908 12.5654 68.7163 12.4805 68.9815 12.2913V12.4768H69.5381V9.89253C69.5248 9.11724 69.1935 8.83893 68.2724 8.83893ZM68.2327 11.9335C67.6694 11.9335 67.4972 11.8009 67.4972 11.3503C67.4972 10.8997 67.6694 10.7672 68.2327 10.7672C68.7959 10.7672 68.9682 10.9064 68.9682 11.3503C68.9682 11.7943 68.7761 11.9401 68.2327 11.9401V11.9335Z" fill="black"/>
<path d="M70.7775 7.46069H70.1812V12.4769H70.7775V7.46069Z" fill="black"/>
<path d="M72.752 10.3828C72.043 10.3431 72.043 10.3166 72.043 9.90575C72.043 9.49491 72.096 9.39551 72.6659 9.39551C73.2358 9.39551 73.3683 9.42864 73.3683 9.86599V9.95213H73.9647V9.87261C73.9647 9.06419 73.693 8.84552 72.6858 8.84552C71.6786 8.84552 71.4466 9.16359 71.4466 9.92563C71.4466 10.6877 71.7382 10.8931 72.6195 10.9395C73.5008 10.9859 73.4014 10.9991 73.4014 11.3834C73.4014 11.887 73.3484 11.9798 72.6659 11.9798C72.3545 11.9798 72.1954 11.9467 72.1159 11.8672C72.0364 11.7876 72.0099 11.6419 72.0165 11.3437V11.2575H71.4268V11.3437C71.4268 12.4569 71.8906 12.5364 72.6526 12.5364C73.7924 12.5364 73.9779 12.2316 73.9779 11.3636C73.9779 10.4955 73.7791 10.4425 72.752 10.3828Z" fill="black"/>
</svg>
