<svg width="160" height="46" viewBox="0 0 160 46" fill="none" xmlns="http://www.w3.org/2000/svg">
<path d="M154.074 0.921437C156.818 0.921437 159.05 3.08775 159.05 5.75V40.25C159.05 42.9123 156.818 45.0786 154.074 45.0786H5.92593C3.18222 45.0786 0.949629 42.9123 0.949629 40.25V5.75C0.949629 3.08775 3.18222 0.921437 5.92593 0.921437H154.074ZM154.074 9.53674e-07H5.92593C2.66815 9.53674e-07 0 2.58894 0 5.75V40.25C0 43.4111 2.66815 46 5.92593 46H154.074C157.332 46 160 43.4111 160 40.25V5.75C160 2.58894 157.332 9.53674e-07 154.074 9.53674e-07Z" fill="white"/>
<path d="M11.4793 8.66957C11.1312 9.02319 10.9297 9.57375 10.9297 10.2868V35.719C10.9297 36.432 11.1312 36.9826 11.4793 37.3362L11.5652 37.4138L26.2526 23.1682V22.8318L11.5652 8.58619L11.4793 8.66957Z" fill="white"/>
<path d="M32.9216 27.9189L28.0312 23.168V22.8316L32.9275 18.0807L33.0372 18.1425L38.8357 21.3438C40.4905 22.2523 40.4905 23.7473 38.8357 24.6616L33.0372 27.8571L32.9216 27.9189V27.9189Z" fill="white"/>
<path d="M32.1484 28.7419L27.1425 23.8846L12.3691 38.2207C12.9188 38.7814 13.8151 38.8489 14.8343 38.2883L32.1484 28.7419" fill="white"/>
<path d="M32.1484 17.2579L14.8343 7.71149C13.8151 7.15661 12.9188 7.22417 12.3691 7.7848L27.1425 22.1152L32.1484 17.2579Z" fill="white"/>
<path d="M56.1979 11.7803C56.1979 12.7406 55.9016 13.5097 55.3179 14.0832C54.6468 14.7632 53.7727 15.1053 52.7016 15.1053C51.6779 15.1053 50.8038 14.7574 50.0868 14.0717C49.3683 13.376 49.0098 12.5221 49.0098 11.5C49.0098 10.478 49.3683 9.62409 50.0868 8.93409C50.8038 8.24265 51.6779 7.89478 52.7016 7.89478C53.2112 7.89478 53.6972 7.99684 54.1609 8.18659C54.6231 8.37778 54.9994 8.63653 55.272 8.95565L54.6527 9.56228C54.1772 9.01746 53.5298 8.74865 52.7016 8.74865C51.955 8.74865 51.3075 9.00165 50.7579 9.51196C50.2142 10.0237 49.9416 10.6864 49.9416 11.5C49.9416 12.3136 50.2142 12.9821 50.7579 13.4938C51.3075 13.9984 51.955 14.2571 52.7016 14.2571C53.4942 14.2571 54.1609 13.9984 54.6868 13.4881C55.0335 13.1503 55.2305 12.6845 55.2824 12.0894H52.7016V11.2585H56.1446C56.1861 11.4382 56.1979 11.6121 56.1979 11.7803V11.7803Z" fill="white" stroke="black" stroke-width="0.16" stroke-miterlimit="10"/>
<path d="M61.6594 8.89942H58.4253V11.0844H61.3409V11.9153H58.4253V14.1003H61.6594V14.947H57.5098V8.05273H61.6594V8.89942Z" fill="white" stroke="black" stroke-width="0.16" stroke-miterlimit="10"/>
<path d="M65.5145 14.947H64.5989V8.89942H62.6152V8.05273H67.4997V8.89942H65.5145V14.947V14.947Z" fill="white" stroke="black" stroke-width="0.16" stroke-miterlimit="10"/>
<path d="M71.0352 14.947V8.05273H71.9492V14.947H71.0352Z" fill="white" stroke="black" stroke-width="0.16" stroke-miterlimit="10"/>
<path d="M76.0008 14.947H75.0927V8.89942H73.1016V8.05273H77.9919V8.89942H76.0008V14.947Z" fill="white" stroke="black" stroke-width="0.16" stroke-miterlimit="10"/>
<path d="M87.2388 14.0602C86.538 14.7574 85.6699 15.1053 84.6343 15.1053C83.5929 15.1053 82.7247 14.7574 82.024 14.0602C81.3247 13.3645 80.9766 12.5106 80.9766 11.5C80.9766 10.4895 81.3247 9.63559 82.024 8.93984C82.7247 8.24265 83.5929 7.89478 84.6343 7.89478C85.664 7.89478 86.5321 8.24265 87.2329 8.94559C87.9381 9.64709 88.2862 10.4952 88.2862 11.5C88.2862 12.5106 87.9381 13.3645 87.2388 14.0602ZM82.701 13.4823C83.2284 13.9984 83.8699 14.2571 84.6343 14.2571C85.3929 14.2571 86.0403 13.9984 86.5618 13.4823C87.0877 12.9663 87.3543 12.3036 87.3543 11.5C87.3543 10.6965 87.0877 10.0338 86.5618 9.51771C86.0403 9.00165 85.3929 8.7429 84.6343 8.7429C83.8699 8.7429 83.2284 9.00165 82.701 9.51771C82.1751 10.0338 81.9084 10.6965 81.9084 11.5C81.9084 12.3036 82.1751 12.9663 82.701 13.4823V13.4823Z" fill="white" stroke="black" stroke-width="0.16" stroke-miterlimit="10"/>
<path d="M89.5703 14.947V8.05273H90.6814L94.1362 13.4146H94.1762L94.1362 12.0892V8.05273H95.0503V14.947H94.0962L90.4785 9.32061H90.4385L90.4785 10.6517V14.947H89.5703V14.947Z" fill="white" stroke="black" stroke-width="0.16" stroke-miterlimit="10"/>
<path d="M80.7532 25.0155C77.9695 25.0155 75.6954 27.0711 75.6954 29.9073C75.6954 32.7205 77.9695 34.7976 80.7532 34.7976C83.5428 34.7976 85.8169 32.7205 85.8169 29.9073C85.8169 27.0711 83.5428 25.0155 80.7532 25.0155ZM80.7532 32.8714C79.2258 32.8714 77.9117 31.6481 77.9117 29.9073C77.9117 28.1435 79.2258 26.9417 80.7532 26.9417C82.2806 26.9417 83.6006 28.1435 83.6006 29.9073C83.6006 31.6481 82.2806 32.8714 80.7532 32.8714V32.8714ZM69.7176 25.0155C66.928 25.0155 64.6599 27.0711 64.6599 29.9073C64.6599 32.7205 66.928 34.7976 69.7176 34.7976C72.5058 34.7976 74.7754 32.7205 74.7754 29.9073C74.7754 27.0711 72.5058 25.0155 69.7176 25.0155ZM69.7176 32.8714C68.1888 32.8714 66.8702 31.6481 66.8702 29.9073C66.8702 28.1435 68.1888 26.9417 69.7176 26.9417C71.2451 26.9417 72.5591 28.1435 72.5591 29.9073C72.5591 31.6481 71.2451 32.8714 69.7176 32.8714ZM56.5858 26.5148V28.5934H61.7014C61.5517 29.7549 61.1517 30.6088 60.5384 31.2039C59.7917 31.9226 58.6288 32.7205 56.5858 32.7205C53.4377 32.7205 50.9725 30.2551 50.9725 27.2005C50.9725 24.1458 53.4377 21.6805 56.5858 21.6805C58.288 21.6805 59.5265 22.3259 60.4406 23.1625L61.9503 21.6977C60.6717 20.5132 58.971 19.6033 56.5858 19.6033C52.2688 19.6033 48.6406 23.0116 48.6406 27.2005C48.6406 31.3893 52.2688 34.7976 56.5858 34.7976C58.9191 34.7976 60.6717 34.0559 62.0495 32.6644C63.4614 31.2945 63.9014 29.3682 63.9014 27.8128C63.9014 27.3298 63.8599 26.8856 63.7858 26.5148H56.5858ZM110.284 28.1262C109.867 27.0323 108.583 25.0155 105.967 25.0155C103.374 25.0155 101.215 26.9978 101.215 29.9073C101.215 32.6471 103.352 34.7976 106.215 34.7976C108.531 34.7976 109.867 33.4277 110.417 32.6299L108.698 31.5187C108.125 32.3323 107.344 32.8714 106.215 32.8714C105.094 32.8714 104.289 32.3726 103.774 31.3893L110.516 28.6825L110.284 28.1262V28.1262ZM103.409 29.7549C103.352 27.8689 104.919 26.9029 106.042 26.9029C106.922 26.9029 107.669 27.3298 107.918 27.9408L103.409 29.7549V29.7549ZM97.9295 34.5001H100.146V20.1251H97.9295V34.5001ZM94.2999 26.1051H94.2258C93.728 25.533 92.7784 25.0155 91.5754 25.0155C89.051 25.0155 86.7428 27.166 86.7428 29.9231C86.7428 32.6644 89.051 34.7976 91.5754 34.7976C92.7784 34.7976 93.728 34.2758 94.2258 33.6865H94.2999V34.388C94.2999 36.2581 93.2702 37.263 91.6095 37.263C90.2554 37.263 89.4154 36.3142 89.0688 35.5164L87.1413 36.297C87.6969 37.5936 89.168 39.1892 91.6095 39.1892C94.208 39.1892 96.4006 37.7057 96.4006 34.0961V25.313H94.2999V26.1051V26.1051ZM91.7651 32.8714C90.2376 32.8714 88.9591 31.6308 88.9591 29.9231C88.9591 28.1995 90.2376 26.9417 91.7651 26.9417C93.2702 26.9417 94.4569 28.1995 94.4569 29.9231C94.4569 31.6308 93.2702 32.8714 91.7651 32.8714V32.8714ZM120.66 20.1251H115.359V34.5001H117.569V29.0534H120.66C123.115 29.0534 125.522 27.3298 125.522 24.5885C125.522 21.8486 123.109 20.1251 120.66 20.1251V20.1251ZM120.718 27.0538H117.569V22.1247H120.718C122.368 22.1247 123.31 23.4543 123.31 24.5885C123.31 25.7011 122.368 27.0538 120.718 27.0538ZM134.381 24.9881C132.784 24.9881 131.124 25.6724 130.441 27.189L132.402 27.9868C132.824 27.189 133.601 26.9302 134.421 26.9302C135.568 26.9302 136.731 27.5986 136.749 28.7788V28.9298C136.349 28.7055 135.492 28.3735 134.439 28.3735C132.327 28.3735 130.174 29.5019 130.174 31.6078C130.174 33.5341 131.904 34.7746 133.849 34.7746C135.337 34.7746 136.158 34.1235 136.673 33.3659H136.749V34.4771H138.884V28.9628C138.884 26.4142 136.922 24.9881 134.381 24.9881ZM134.115 32.8656C133.392 32.8656 132.384 32.5178 132.384 31.6481C132.384 30.5355 133.641 30.1085 134.728 30.1085C135.701 30.1085 136.158 30.317 136.749 30.5915C136.575 31.9226 135.395 32.8656 134.115 32.8656V32.8656ZM146.661 25.303L144.121 31.5345H144.045L141.418 25.303H139.035L142.981 34.0113L140.729 38.8571H143.039L149.121 25.303H146.661V25.303ZM126.737 34.5001H128.953V20.1251H126.737V34.5001Z" fill="white"/>
</svg>
