<svg width="40" height="40" viewBox="0 0 40 40" fill="none" xmlns="http://www.w3.org/2000/svg">
<path d="M32.5 6.25H7.5C6.83696 6.25 6.20107 6.51339 5.73223 6.98223C5.26339 7.45107 5 8.08696 5 8.75V17.9219C5 31.8906 16.8438 36.5312 19.2188 37.3125C19.7262 37.4794 20.2738 37.4794 20.7812 37.3125C23.1562 36.5312 35 31.8906 35 17.9219V8.75C35 8.08696 34.7366 7.45107 34.2678 6.98223C33.7989 6.51339 33.163 6.25 32.5 6.25ZM32.5 17.9219C32.5 30.1406 22.125 34.2344 20 34.9375C17.8906 34.2344 7.5 30.1562 7.5 17.9219V8.75H32.5V17.9219ZM12.2656 21.5312C12.1386 21.4205 12.0354 21.2851 11.962 21.1334C11.8887 20.9817 11.8468 20.8167 11.8388 20.6484C11.8308 20.4801 11.857 20.3119 11.9157 20.1539C11.9744 19.996 12.0644 19.8515 12.1804 19.7292C12.2963 19.6069 12.4358 19.5094 12.5904 19.4424C12.7451 19.3754 12.9116 19.3403 13.0801 19.3394C13.2486 19.3384 13.4156 19.3715 13.571 19.4367C13.7264 19.5019 13.867 19.5978 13.9844 19.7188L17.7031 23.2656L26.0156 15.3438C26.2587 15.1317 26.5743 15.0218 26.8965 15.0371C27.2187 15.0523 27.5225 15.1915 27.7444 15.4255C27.9664 15.6596 28.0892 15.9704 28.0874 16.2929C28.0855 16.6155 27.959 16.9248 27.7344 17.1562L18.5781 25.9062C18.3414 26.1289 18.0281 26.252 17.7031 26.25C17.3829 26.2512 17.0748 26.128 16.8438 25.9062L12.2656 21.5312Z" fill="#545461"/>
</svg>
