<svg width="40" height="40" viewBox="0 0 40 40" fill="none" xmlns="http://www.w3.org/2000/svg">
<path d="M38.7656 18.7344V18.7031C38.7681 18.666 38.7628 18.6287 38.75 18.5938V18.5469C38.75 18.5156 38.7344 18.4844 38.7344 18.4531V18.4219C38.7187 18.375 38.7187 18.3438 38.7031 18.2969H38.6875L36.5 12.8281C36.3169 12.3606 35.9964 11.9596 35.5808 11.6779C35.1652 11.3962 34.6739 11.247 34.1719 11.25H28.7656V10C28.7656 9.66848 28.6339 9.35054 28.3995 9.11612C28.1651 8.8817 27.8471 8.75 27.5156 8.75H3.76562C3.10258 8.75 2.4667 9.01339 1.99786 9.48223C1.52902 9.95107 1.26563 10.587 1.26562 11.25V28.75C1.26563 29.413 1.52902 30.0489 1.99786 30.5178C2.4667 30.9866 3.10258 31.25 3.76562 31.25H5.79687C6.07225 32.3255 6.69775 33.2788 7.57476 33.9595C8.45177 34.6403 9.53041 35.0098 10.6406 35.0098C11.7508 35.0098 12.8295 34.6403 13.7065 33.9595C14.5835 33.2788 15.209 32.3255 15.4844 31.25H24.5469C24.8222 32.3255 25.4477 33.2788 26.3248 33.9595C27.2018 34.6403 28.2804 35.0098 29.3906 35.0098C30.5008 35.0098 31.5795 34.6403 32.4565 33.9595C33.3335 33.2788 33.959 32.3255 34.2344 31.25H36.2656C36.9287 31.25 37.5645 30.9866 38.0334 30.5178C38.5022 30.0489 38.7656 29.413 38.7656 28.75V18.75V18.7344ZM34.1719 13.75L35.6719 17.5H28.7656V13.75H34.1719ZM26.2656 11.25V21.25H3.76562V11.25H26.2656ZM3.76562 23.75H26.2656V26.0938C25.4253 26.7743 24.8233 27.7046 24.5469 28.75H15.4844C15.209 27.6745 14.5835 26.7212 13.7065 26.0405C12.8295 25.3597 11.7508 24.9902 10.6406 24.9902C9.53041 24.9902 8.45177 25.3597 7.57476 26.0405C6.69775 26.7212 6.07225 27.6745 5.79687 28.75H3.76562V23.75ZM10.6406 32.5C10.1462 32.5 9.66282 32.3534 9.2517 32.0787C8.84058 31.804 8.52014 31.4135 8.33093 30.9567C8.14171 30.4999 8.0922 29.9972 8.18866 29.5123C8.28512 29.0273 8.52323 28.5819 8.87286 28.2322C9.22249 27.8826 9.66795 27.6445 10.1529 27.548C10.6379 27.4516 11.1405 27.5011 11.5973 27.6903C12.0541 27.8795 12.4446 28.2 12.7193 28.6111C12.994 29.0222 13.1406 29.5055 13.1406 30C13.1406 30.663 12.8772 31.2989 12.4084 31.7678C11.9396 32.2366 11.3037 32.5 10.6406 32.5ZM29.3906 32.5C28.8962 32.5 28.4128 32.3534 28.0017 32.0787C27.5906 31.804 27.2701 31.4135 27.0809 30.9567C26.8917 30.4999 26.8422 29.9972 26.9387 29.5123C27.0351 29.0273 27.2732 28.5819 27.6229 28.2322C27.9725 27.8826 28.4179 27.6445 28.9029 27.548C29.3878 27.4516 29.8905 27.5011 30.3473 27.6903C30.8041 27.8795 31.1946 28.2 31.4693 28.6111C31.744 29.0222 31.8906 29.5055 31.8906 30C31.8906 30.663 31.6272 31.2989 31.1584 31.7678C30.6895 32.2366 30.0537 32.5 29.3906 32.5ZM36.2656 28.75H34.2344C33.9547 27.6776 33.3278 26.7281 32.4515 26.0496C31.5752 25.3712 30.4989 25.0021 29.3906 25C29.1814 25 28.9725 25.0157 28.7656 25.0469V20H36.2656V28.75Z" fill="#545461"/>
</svg>
