<svg width="79" height="78" viewBox="0 0 79 78" fill="none" xmlns="http://www.w3.org/2000/svg">
<path d="M74.1215 41.7756C73.8344 42.6609 73.3917 43.4624 72.7935 44.1563C72.1834 44.8741 71.5613 45.3765 70.9153 45.6876C70.8914 45.6996 70.8675 45.7115 70.8436 45.7115V45.7235C70.8436 45.7235 24.1273 67.8673 24.0555 67.9032C23.3975 68.2143 22.6199 68.3698 21.6748 68.3818C20.7656 68.4057 19.8684 68.2502 18.9951 67.9032C18.2295 67.5922 17.5356 67.1376 16.9494 66.5634C16.3991 65.9891 15.8607 65.1995 15.3702 64.1946L3.76595 39.8017C3.76595 39.8017 3.7181 39.6462 3.69417 39.5864C3.38313 38.9284 3.22761 38.1508 3.21565 37.2057C3.19172 36.2965 3.34724 35.3992 3.69417 34.5259C4.00522 33.7603 4.45982 33.0664 5.03405 32.4802C5.60828 31.9299 6.39785 31.3916 7.40276 30.9011L53.2218 9.17593C53.2457 9.16397 53.4132 9.08023 53.4969 9.0563C54.1549 8.79311 54.9325 8.6017 55.8896 8.58974C56.7988 8.55385 57.696 8.72133 58.5693 9.0563C59.335 9.36734 60.0288 9.80998 60.615 10.3962C61.1773 10.9704 61.7037 11.7121 62.2061 12.717L73.5592 36.6315C74.0258 37.6483 74.3009 38.5575 74.3847 39.3591C74.4564 40.1726 74.3727 40.9861 74.1215 41.7756ZM10.3457 43.0078C10.4534 43.3787 10.6089 43.7495 10.7883 44.1084C10.9798 44.4793 11.1951 44.8262 11.4463 45.1492C12.0684 45.9388 12.846 46.5609 13.7672 46.9916C14.4252 47.3146 15.3224 47.5538 16.3273 47.6256C16.3273 47.6256 19.4377 43.6658 19.4377 43.6538C19.4377 43.6538 19.5933 44.0008 19.6172 44.0606C20.6939 46.202 22.6319 47.518 24.9288 47.6615C25.0126 47.6615 25.1083 47.6735 25.192 47.6735C25.9337 47.6735 26.7233 47.4821 27.6086 47.0753C28.4699 46.7045 29.2356 46.1542 29.8816 45.4603C30.4558 44.8382 30.8985 44.1204 31.1975 43.3189C31.4607 42.5532 31.6043 41.5723 31.6282 40.4357V29.2023H27.7402V40.352C27.7402 41.2851 27.6445 41.9431 27.4411 42.3499C26.9985 43.2232 26.2448 43.6778 25.2638 43.6778C24.3905 43.6778 23.7086 43.3069 23.242 42.5652C23.0387 42.2661 22.9071 41.9192 22.8592 41.5603C22.7994 41.2373 22.7755 40.8066 22.7755 40.2443V29.1903H18.8874V40.2084C18.8874 41.1296 18.8037 41.7756 18.6123 42.2183C18.4089 42.6609 18.0979 43.0198 17.6791 43.283C17.2963 43.5342 16.8537 43.6658 16.3752 43.6658C15.4899 43.6658 13.9945 43.283 13.9227 40.7588C13.9227 40.7588 13.9107 39.9811 13.9107 39.7897V29.1903H10.9558L9.98681 29.645V40.2563C9.98681 40.8545 10.0227 41.3449 10.0706 41.7397C10.1304 42.1824 10.2141 42.613 10.3457 43.0078ZM48.604 40.6032C47.8503 40.7348 47.2761 41.1057 46.7377 41.6081C46.4626 41.991 46.1276 42.3379 45.7687 42.6489C45.7448 42.6848 45.7328 42.6968 45.7328 42.6968L45.7448 42.6729C44.7518 43.4864 43.4837 43.9529 42.096 43.9769C40.5767 44.0008 39.1531 43.3189 38.1362 42.3738L35.0617 43.7615L37.1074 41.1176C36.7724 40.4357 36.3537 39.4069 36.3537 38.2345C36.3656 35.0643 39.1052 32.4084 42.108 32.5281C43.2086 32.5759 43.8546 32.6836 44.7279 33.1621L38.6267 40.9143L50.9368 35.0882C49.7525 31.4155 46.0678 28.7836 42.0721 28.7836C36.8561 28.7836 32.6212 33.0186 32.6212 38.2345C32.6212 43.4505 36.8561 47.7213 42.0721 47.6854C46.4985 47.6615 50.0515 44.575 51.0804 41.1296C50.9009 41.0219 50.1592 40.3281 48.604 40.6032ZM48.3767 47.6854H53.3534L58.2822 41.3808L63.211 47.6854H66.7163L67.7929 47.171L60.7705 38.1867L67.8288 29.1545H62.8521L58.2822 35.0045L53.7123 29.1545H48.7356L55.7939 38.1867L48.3767 47.6854Z" fill="#D00A2C"/>
<path d="M73.009 26.9888C73.8225 26.9888 74.4805 27.6228 74.4805 28.4244C74.4805 29.2378 73.8344 29.8719 73.009 29.8719C72.1835 29.8719 71.5256 29.2259 71.5256 28.4244C71.5136 27.6228 72.1716 26.9888 73.009 26.9888ZM72.9851 27.2759C72.363 27.2759 71.8725 27.7903 71.8725 28.4244C71.8725 29.0704 72.351 29.5728 72.997 29.5728C73.6191 29.5848 74.0976 29.0584 74.0976 28.4244C74.0976 27.7903 73.6311 27.2759 72.9851 27.2759ZM72.7697 29.1661H72.4348V27.7305C72.5663 27.7185 72.7578 27.6826 72.9851 27.6826C73.2602 27.6826 73.3798 27.7305 73.4756 27.8023C73.5593 27.8621 73.6191 27.9698 73.6191 28.1133C73.6191 28.2928 73.4875 28.4004 73.32 28.4602V28.4842C73.4636 28.532 73.5354 28.6397 73.5713 28.8311C73.6191 29.0464 73.655 29.1302 73.6789 29.178H73.332C73.2841 29.1302 73.2602 28.9986 73.2124 28.8311C73.1884 28.6875 73.0927 28.6158 72.9133 28.6158H72.7578V29.1661H72.7697ZM72.7697 28.3645H72.9252C73.1047 28.3645 73.2602 28.3047 73.2602 28.1492C73.2602 28.0176 73.1645 27.9339 72.9492 27.9339C72.8654 27.9339 72.7936 27.9458 72.7697 27.9578V28.3645Z" fill="#D00A2C"/>
</svg>
